<svg width="360" height="525" viewBox="0 0 360 525" fill="none" xmlns="http://www.w3.org/2000/svg">
<g clip-path="url(#clip0_6_46)">
<rect width="360" height="524.687" rx="4.62279" fill="white"/>
<mask id="path-2-inside-1_6_46" fill="white">
<path d="M0 4.62278C0 2.06969 2.06969 0 4.62279 0H355.377C357.93 0 360 2.0697 360 4.62279V38.7159H0V4.62278Z"/>
</mask>
<path d="M0 4.62278C0 2.06969 2.06969 0 4.62279 0H355.377C357.93 0 360 2.0697 360 4.62279V38.7159H0V4.62278Z" fill="white"/>
<path d="M0 0H360H0ZM360 39.2937H0V38.138H360V39.2937ZM0 38.7159V0V38.7159ZM360 0V38.7159V0Z" fill="#DCE1E5" mask="url(#path-2-inside-1_6_46)"/>
<path d="M16.0839 22.8234L15.5455 21.056H12.8385L12.3002 22.8234H10.6039L13.2245 15.3678H15.1494L17.7802 22.8234H16.0839ZM15.1697 19.7355L14.6313 18.0087C14.5975 17.8936 14.5518 17.7463 14.4942 17.5669C14.44 17.384 14.3842 17.1995 14.3266 17.0133C14.2724 16.8237 14.2284 16.6595 14.1946 16.5206C14.1607 16.6595 14.1133 16.8321 14.0524 17.0387C13.9948 17.2418 13.9389 17.4348 13.8848 17.6176C13.8306 17.8005 13.7916 17.9308 13.7679 18.0087L13.2347 19.7355H15.1697ZM20.3957 22.9249C19.7626 22.9249 19.2462 22.6778 18.8467 22.1834C18.4506 21.6857 18.2525 20.9561 18.2525 19.9945C18.2525 19.0228 18.4539 18.288 18.8569 17.7903C19.2598 17.2892 19.7863 17.0387 20.4363 17.0387C20.7072 17.0387 20.9459 17.0759 21.1525 17.1504C21.359 17.2249 21.5367 17.3248 21.6857 17.45C21.8381 17.5753 21.9667 17.7158 22.0717 17.8716H22.1225C22.1022 17.7632 22.0768 17.6041 22.0463 17.3942C22.0192 17.1809 22.0057 16.9625 22.0057 16.739V14.9208H23.5598V22.8234H22.3714L22.0717 22.0869H22.0057C21.9075 22.2427 21.7839 22.3849 21.6349 22.5136C21.4893 22.6388 21.315 22.7387 21.1118 22.8132C20.9087 22.8877 20.67 22.9249 20.3957 22.9249ZM20.9391 21.6908C21.3624 21.6908 21.6603 21.5655 21.833 21.315C22.0091 21.061 22.1022 20.6801 22.1123 20.1723V20.0047C22.1123 19.4528 22.0277 19.0312 21.8584 18.74C21.6891 18.4455 21.3742 18.2982 20.9138 18.2982C20.5718 18.2982 20.3043 18.4455 20.1113 18.74C19.9183 19.0346 19.8218 19.4595 19.8218 20.0148C19.8218 20.5701 19.9183 20.9882 20.1113 21.2693C20.3077 21.5503 20.5836 21.6908 20.9391 21.6908ZM26.9778 22.9249C26.3446 22.9249 25.8283 22.6778 25.4288 22.1834C25.0326 21.6857 24.8345 20.9561 24.8345 19.9945C24.8345 19.0228 25.036 18.288 25.4389 17.7903C25.8418 17.2892 26.3683 17.0387 27.0184 17.0387C27.2893 17.0387 27.528 17.0759 27.7345 17.1504C27.9411 17.2249 28.1188 17.3248 28.2678 17.45C28.4201 17.5753 28.5488 17.7158 28.6538 17.8716H28.7046C28.6842 17.7632 28.6588 17.6041 28.6284 17.3942C28.6013 17.1809 28.5877 16.9625 28.5877 16.739V14.9208H30.1418V22.8234H28.9534L28.6538 22.0869H28.5877C28.4896 22.2427 28.366 22.3849 28.217 22.5136C28.0714 22.6388 27.897 22.7387 27.6939 22.8132C27.4907 22.8877 27.252 22.9249 26.9778 22.9249ZM27.5212 21.6908C27.9444 21.6908 28.2424 21.5655 28.4151 21.315C28.5911 21.061 28.6842 20.6801 28.6944 20.1723V20.0047C28.6944 19.4528 28.6098 19.0312 28.4405 18.74C28.2712 18.4455 27.9563 18.2982 27.4958 18.2982C27.1538 18.2982 26.8864 18.4455 26.6934 18.74C26.5004 19.0346 26.4039 19.4595 26.4039 20.0148C26.4039 20.5701 26.5004 20.9882 26.6934 21.2693C26.8897 21.5503 27.1657 21.6908 27.5212 21.6908ZM37.4502 22.8234H35.8758V16.7085H33.8595V15.3982H39.4664V16.7085H37.4502V22.8234ZM42.8133 17.0285C43.5751 17.0285 44.1592 17.1944 44.5655 17.5262C44.9718 17.858 45.1749 18.3625 45.1749 19.0397V22.8234H44.0932L43.7935 22.0514H43.7529C43.5904 22.2545 43.4245 22.4204 43.2552 22.5491C43.0859 22.6778 42.8912 22.7726 42.6711 22.8335C42.451 22.8945 42.1836 22.9249 41.8687 22.9249C41.5335 22.9249 41.2321 22.8606 40.9647 22.7319C40.7006 22.6033 40.4923 22.4069 40.34 22.1428C40.1876 21.8753 40.1114 21.5367 40.1114 21.1271C40.1114 20.5244 40.323 20.0808 40.7463 19.7964C41.1695 19.5086 41.8043 19.3495 42.6508 19.319L43.6361 19.2886V19.0397C43.6361 18.7417 43.5582 18.5234 43.4025 18.3845C43.2467 18.2457 43.03 18.1763 42.7524 18.1763C42.4781 18.1763 42.209 18.2152 41.9449 18.2931C41.6808 18.371 41.4167 18.4692 41.1526 18.5877L40.6396 17.5415C40.941 17.3823 41.2779 17.2571 41.6503 17.1656C42.0261 17.0742 42.4138 17.0285 42.8133 17.0285ZM43.6361 20.1926L43.0368 20.2129C42.5357 20.2264 42.1869 20.3162 41.9906 20.4821C41.7976 20.648 41.7011 20.8664 41.7011 21.1372C41.7011 21.3742 41.7705 21.5435 41.9093 21.6451C42.0481 21.7433 42.2293 21.7924 42.4527 21.7924C42.7845 21.7924 43.0639 21.6942 43.2907 21.4978C43.521 21.3014 43.6361 21.0221 43.6361 20.6598V20.1926ZM50.7362 21.1372C50.7362 21.5232 50.6448 21.8499 50.4619 22.1174C50.2825 22.3815 50.0133 22.583 49.6544 22.7218C49.2955 22.8572 48.8486 22.9249 48.3136 22.9249C47.9175 22.9249 47.5772 22.8995 47.2928 22.8488C47.0118 22.798 46.7274 22.7133 46.4396 22.5948V21.315C46.7477 21.4538 47.0778 21.5689 47.4299 21.6603C47.7854 21.7484 48.0969 21.7924 48.3644 21.7924C48.6657 21.7924 48.8807 21.7484 49.0094 21.6603C49.1415 21.5689 49.2075 21.4504 49.2075 21.3048C49.2075 21.21 49.1804 21.1254 49.1262 21.0509C49.0754 20.973 48.9637 20.8867 48.791 20.7919C48.6183 20.6937 48.3475 20.5667 47.9784 20.411C47.6229 20.262 47.33 20.1113 47.0998 19.9589C46.8729 19.8066 46.7037 19.6271 46.5919 19.4206C46.4836 19.2107 46.4294 18.9449 46.4294 18.6232C46.4294 18.0984 46.6325 17.704 47.0388 17.4399C47.4485 17.1724 47.9953 17.0387 48.6793 17.0387C49.0314 17.0387 49.3666 17.0742 49.6849 17.1453C50.0065 17.2164 50.3367 17.3298 50.6752 17.4856L50.208 18.6029C49.927 18.481 49.6612 18.3811 49.4106 18.3033C49.1635 18.2254 48.9112 18.1865 48.6539 18.1865C48.427 18.1865 48.2561 18.2169 48.1409 18.2779C48.0258 18.3388 47.9683 18.4319 47.9683 18.5572C47.9683 18.6486 47.997 18.7299 48.0546 18.801C48.1155 18.8721 48.2307 18.9517 48.4 19.0397C48.5726 19.1243 48.8249 19.2344 49.1567 19.3698C49.4783 19.5019 49.7577 19.6407 49.9947 19.7863C50.2317 19.9285 50.4145 20.1062 50.5432 20.3195C50.6719 20.5295 50.7362 20.802 50.7362 21.1372ZM53.4939 14.9208V18.4556C53.4939 18.6689 53.4855 18.8823 53.4685 19.0956C53.4516 19.3089 53.433 19.5222 53.4127 19.7355H53.433C53.538 19.5865 53.6446 19.4392 53.753 19.2936C53.8647 19.148 53.9832 19.0075 54.1085 18.8721L55.6981 17.1453H57.4452L55.1902 19.6085L57.5823 22.8234H55.7946L54.1593 20.5227L53.4939 21.056V22.8234H51.9449V14.9208H53.4939Z" fill="#2D353C"/>
<path d="M13.3498 59.6949H12.1253V54.939H10.5571V53.9198H14.918V54.939H13.3498V59.6949ZM16.9168 55.2787V59.6949H15.712V55.2787H16.9168ZM16.3164 53.5485C16.4954 53.5485 16.6495 53.5907 16.7785 53.6749C16.9076 53.7566 16.9721 53.9106 16.9721 54.1371C16.9721 54.3609 16.9076 54.5163 16.7785 54.6032C16.6495 54.6875 16.4954 54.7296 16.3164 54.7296C16.1347 54.7296 15.9793 54.6875 15.8502 54.6032C15.7238 54.5163 15.6606 54.3609 15.6606 54.1371C15.6606 53.9106 15.7238 53.7566 15.8502 53.6749C15.9793 53.5907 16.1347 53.5485 16.3164 53.5485ZM20.0453 58.8141C20.177 58.8141 20.3047 58.8009 20.4285 58.7746C20.5549 58.7482 20.6799 58.7153 20.8037 58.6758V59.5725C20.6747 59.6304 20.514 59.6778 20.3218 59.7147C20.1322 59.7542 19.9242 59.7739 19.6977 59.7739C19.4343 59.7739 19.1973 59.7318 18.9867 59.6475C18.7786 59.5606 18.614 59.4119 18.4929 59.2012C18.3744 58.9879 18.3151 58.6916 18.3151 58.3124V56.1833H17.7384V55.6737L18.402 55.2708L18.7496 54.3386H19.5199V55.2787H20.7563V56.1833H19.5199V58.3124C19.5199 58.4809 19.5673 58.6073 19.6621 58.6916C19.7596 58.7732 19.8873 58.8141 20.0453 58.8141ZM22.9052 59.6949H21.7004V53.5485H22.9052V59.6949ZM25.9942 55.1957C26.4024 55.1957 26.7539 55.2747 27.0489 55.4327C27.3438 55.5881 27.5716 55.8146 27.7323 56.1122C27.8929 56.4097 27.9732 56.7732 27.9732 57.2024V57.787H25.1252C25.1383 58.1267 25.2397 58.394 25.4293 58.5889C25.6216 58.7811 25.8875 58.8773 26.2273 58.8773C26.509 58.8773 26.7671 58.8483 27.0015 58.7904C27.2359 58.7324 27.4768 58.6455 27.7244 58.5297V59.4619C27.5058 59.5699 27.2767 59.6489 27.037 59.6989C26.8 59.7489 26.5117 59.7739 26.172 59.7739C25.7295 59.7739 25.3372 59.6923 24.9948 59.529C24.6551 59.3658 24.3878 59.1169 24.1929 58.7825C24.0007 58.448 23.9046 58.0267 23.9046 57.5184C23.9046 57.0023 23.9915 56.573 24.1653 56.2307C24.3417 55.8857 24.5866 55.6276 24.9 55.4564C25.2134 55.2826 25.5781 55.1957 25.9942 55.1957ZM26.0021 56.0529C25.7677 56.0529 25.5729 56.128 25.4175 56.2781C25.2647 56.4282 25.1765 56.6639 25.1528 56.9852H26.8435C26.8408 56.8061 26.8079 56.6468 26.7447 56.5072C26.6842 56.3676 26.592 56.257 26.4682 56.1754C26.3471 56.0937 26.1917 56.0529 26.0021 56.0529Z" fill="#2D353C"/>
<rect x="10.6903" y="66.7415" width="339.197" height="23.114" rx="2.60032" fill="white" stroke="#DCE1E5" stroke-width="0.577849"/>
<path d="M12.7178 110.546H11.4932V105.79H9.92503V104.771H14.286V105.79H12.7178V110.546ZM14.4479 106.129H15.7673L16.6008 108.614C16.6271 108.693 16.6495 108.773 16.6679 108.855C16.6864 108.937 16.7022 109.021 16.7153 109.108C16.7285 109.195 16.739 109.286 16.7469 109.38H16.7706C16.7864 109.238 16.8075 109.105 16.8338 108.981C16.8628 108.858 16.8983 108.735 16.9405 108.614L17.7582 106.129H19.0499L17.1814 111.111C17.0682 111.416 16.9207 111.67 16.739 111.873C16.5573 112.078 16.348 112.232 16.111 112.335C15.8766 112.438 15.6185 112.489 15.3367 112.489C15.1998 112.489 15.0813 112.481 14.9812 112.465C14.8811 112.452 14.7956 112.438 14.7245 112.422V111.466C14.7798 111.479 14.8495 111.491 14.9338 111.502C15.0181 111.512 15.1063 111.517 15.1985 111.517C15.367 111.517 15.5118 111.482 15.633 111.411C15.7541 111.34 15.8555 111.244 15.9371 111.122C16.0188 111.004 16.0833 110.874 16.1307 110.731L16.2018 110.514L14.4479 106.129ZM22.1428 106.046C22.6405 106.046 23.0421 106.24 23.3476 106.627C23.6557 107.014 23.8098 107.582 23.8098 108.33C23.8098 108.83 23.7374 109.251 23.5925 109.594C23.4477 109.933 23.2475 110.19 22.9921 110.364C22.7367 110.538 22.443 110.625 22.1112 110.625C21.8979 110.625 21.7149 110.598 21.5621 110.546C21.4094 110.49 21.2791 110.421 21.1711 110.336C21.0631 110.249 20.9696 110.157 20.8906 110.06H20.8274C20.8485 110.165 20.8643 110.273 20.8748 110.384C20.8854 110.494 20.8906 110.602 20.8906 110.708V112.489H19.6858V106.129H20.6655L20.8353 106.702H20.8906C20.9696 106.584 21.0657 106.474 21.179 106.374C21.2922 106.274 21.4278 106.195 21.5858 106.137C21.7465 106.077 21.9321 106.046 22.1428 106.046ZM21.7557 107.01C21.545 107.01 21.3778 107.054 21.254 107.141C21.1303 107.228 21.0394 107.358 20.9815 107.532C20.9262 107.706 20.8959 107.925 20.8906 108.191V108.322C20.8906 108.606 20.917 108.847 20.9696 109.045C21.0249 109.242 21.1158 109.392 21.2422 109.495C21.3712 109.598 21.5477 109.649 21.7715 109.649C21.9558 109.649 22.1073 109.598 22.2258 109.495C22.3443 109.392 22.4325 109.242 22.4904 109.045C22.551 108.844 22.5813 108.601 22.5813 108.314C22.5813 107.882 22.5141 107.557 22.3798 107.338C22.2455 107.12 22.0375 107.01 21.7557 107.01ZM26.6262 106.046C27.0344 106.046 27.386 106.125 27.6809 106.283C27.9759 106.439 28.2036 106.665 28.3643 106.963C28.5249 107.26 28.6052 107.624 28.6052 108.053V108.638H25.7572C25.7704 108.977 25.8717 109.245 26.0614 109.44C26.2536 109.632 26.5196 109.728 26.8593 109.728C27.1411 109.728 27.3991 109.699 27.6335 109.641C27.8679 109.583 28.1088 109.496 28.3564 109.38V110.313C28.1378 110.421 27.9087 110.5 27.6691 110.55C27.4321 110.6 27.1437 110.625 26.804 110.625C26.3616 110.625 25.9692 110.543 25.6268 110.38C25.2871 110.216 25.0198 109.968 24.825 109.633C24.6327 109.299 24.5366 108.877 24.5366 108.369C24.5366 107.853 24.6235 107.424 24.7973 107.081C24.9737 106.736 25.2187 106.478 25.532 106.307C25.8454 106.133 26.2101 106.046 26.6262 106.046ZM26.6341 106.904C26.3997 106.904 26.2049 106.979 26.0495 107.129C25.8968 107.279 25.8085 107.515 25.7848 107.836H27.4755C27.4729 107.657 27.44 107.497 27.3767 107.358C27.3162 107.218 27.224 107.108 27.1002 107.026C26.9791 106.944 26.8237 106.904 26.6341 106.904Z" fill="#2D353C"/>
<path d="M39.7039 126.881H38.9844V120.693H42.4295V121.328H39.7039V123.597H42.2644V124.227H39.7039V126.881ZM45.1424 122.158C45.5374 122.158 45.876 122.245 46.1581 122.42C46.4403 122.595 46.6561 122.841 46.8057 123.157C46.9552 123.47 47.03 123.837 47.03 124.257V124.693H43.8261C43.8346 125.238 43.97 125.652 44.2324 125.937C44.4948 126.222 44.8645 126.365 45.3413 126.365C45.6347 126.365 45.8943 126.338 46.12 126.284C46.3458 126.231 46.58 126.152 46.8226 126.047V126.665C46.5884 126.77 46.3556 126.846 46.1243 126.894C45.8957 126.942 45.6249 126.966 45.3117 126.966C44.8659 126.966 44.4765 126.875 44.1436 126.695C43.8134 126.511 43.5567 126.243 43.3733 125.891C43.1899 125.538 43.0982 125.106 43.0982 124.596C43.0982 124.096 43.1814 123.665 43.3479 123.301C43.5172 122.934 43.7542 122.652 44.0589 122.454C44.3665 122.257 44.7276 122.158 45.1424 122.158ZM45.1339 122.733C44.7587 122.733 44.4596 122.856 44.2367 123.102C44.0138 123.347 43.8812 123.69 43.8388 124.13H46.2936C46.2907 123.854 46.247 123.611 46.1624 123.402C46.0805 123.191 45.955 123.027 45.7857 122.911C45.6164 122.793 45.3991 122.733 45.1339 122.733ZM49.9587 122.166C50.5118 122.166 50.9223 122.29 51.1903 122.539C51.4584 122.787 51.5924 123.183 51.5924 123.728V126.881H51.0803L50.9449 126.195H50.911C50.7812 126.365 50.6458 126.507 50.5047 126.623C50.3636 126.736 50.2 126.822 50.0138 126.881C49.8304 126.938 49.6046 126.966 49.3366 126.966C49.0544 126.966 48.8033 126.916 48.5832 126.818C48.366 126.719 48.1939 126.569 48.0669 126.369C47.9428 126.169 47.8807 125.915 47.8807 125.607C47.8807 125.144 48.0641 124.789 48.4309 124.541C48.7977 124.292 49.3563 124.157 50.1069 124.134L50.9068 124.1V123.817C50.9068 123.416 50.8207 123.136 50.6486 122.975C50.4765 122.814 50.2338 122.733 49.9206 122.733C49.678 122.733 49.4466 122.769 49.2265 122.839C49.0065 122.91 48.7977 122.993 48.6002 123.089L48.3843 122.556C48.5931 122.448 48.8329 122.357 49.1038 122.281C49.3747 122.204 49.6597 122.166 49.9587 122.166ZM50.8983 124.596L50.1915 124.625C49.6131 124.648 49.2054 124.742 48.9684 124.909C48.7314 125.075 48.6129 125.311 48.6129 125.616C48.6129 125.881 48.6933 126.077 48.8541 126.204C49.0149 126.331 49.228 126.394 49.4932 126.394C49.9051 126.394 50.2423 126.28 50.5047 126.052C50.7671 125.823 50.8983 125.48 50.8983 125.023V124.596ZM54.5381 126.39C54.6538 126.39 54.7723 126.38 54.8936 126.361C55.0149 126.341 55.1137 126.317 55.1898 126.289V126.835C55.108 126.871 54.9938 126.902 54.847 126.928C54.7031 126.953 54.5621 126.966 54.4238 126.966C54.1783 126.966 53.9554 126.923 53.7551 126.839C53.5548 126.751 53.3939 126.605 53.2726 126.399C53.1541 126.193 53.0949 125.908 53.0949 125.544V122.793H52.4346V122.45L53.0991 122.175L53.3784 121.168H53.8017V122.243H55.1602V122.793H53.8017V125.523C53.8017 125.813 53.868 126.03 54.0006 126.174C54.136 126.318 54.3152 126.39 54.5381 126.39ZM59.9596 122.243V126.881H59.384L59.2825 126.229H59.2444C59.1485 126.39 59.0243 126.526 58.8719 126.636C58.7196 126.746 58.5475 126.827 58.3556 126.881C58.1666 126.938 57.9648 126.966 57.7504 126.966C57.3836 126.966 57.076 126.906 56.8277 126.788C56.5795 126.669 56.3918 126.486 56.2648 126.238C56.1407 125.99 56.0786 125.671 56.0786 125.281V122.243H56.7897V125.231C56.7897 125.617 56.8771 125.906 57.0521 126.098C57.227 126.287 57.4936 126.382 57.852 126.382C58.1962 126.382 58.4699 126.317 58.673 126.187C58.879 126.057 59.0271 125.867 59.1174 125.616C59.2077 125.362 59.2528 125.051 59.2528 124.685V122.243H59.9596ZM63.5529 122.158C63.646 122.158 63.7433 122.164 63.8449 122.175C63.9465 122.183 64.0368 122.196 64.1158 122.213L64.0269 122.865C63.9507 122.845 63.866 122.829 63.7729 122.818C63.6798 122.807 63.5924 122.801 63.5105 122.801C63.3243 122.801 63.148 122.839 62.9815 122.915C62.8178 122.989 62.674 123.096 62.5498 123.237C62.4257 123.375 62.3283 123.543 62.2578 123.741C62.1872 123.935 62.152 124.153 62.152 124.393V126.881H61.4452V122.243H62.0292L62.1054 123.097H62.135C62.231 122.925 62.3467 122.769 62.4821 122.628C62.6175 122.484 62.7741 122.369 62.9519 122.285C63.1325 122.2 63.3328 122.158 63.5529 122.158ZM66.7779 122.158C67.1729 122.158 67.5115 122.245 67.7936 122.42C68.0758 122.595 68.2916 122.841 68.4412 123.157C68.5907 123.47 68.6655 123.837 68.6655 124.257V124.693H65.4616C65.4701 125.238 65.6055 125.652 65.8679 125.937C66.1303 126.222 66.4999 126.365 66.9768 126.365C67.2702 126.365 67.5298 126.338 67.7555 126.284C67.9812 126.231 68.2154 126.152 68.4581 126.047V126.665C68.2239 126.77 67.9911 126.846 67.7598 126.894C67.5312 126.942 67.2603 126.966 66.9472 126.966C66.5014 126.966 66.112 126.875 65.779 126.695C65.4489 126.511 65.1922 126.243 65.0088 125.891C64.8254 125.538 64.7337 125.106 64.7337 124.596C64.7337 124.096 64.8169 123.665 64.9834 123.301C65.1527 122.934 65.3897 122.652 65.6944 122.454C66.0019 122.257 66.3631 122.158 66.7779 122.158ZM66.7694 122.733C66.3941 122.733 66.0951 122.856 65.8722 123.102C65.6493 123.347 65.5166 123.69 65.4743 124.13H67.9291C67.9262 123.854 67.8825 123.611 67.7978 123.402C67.716 123.191 67.5905 123.027 67.4212 122.911C67.2519 122.793 67.0346 122.733 66.7694 122.733Z" fill="#383E40"/>
<path d="M38.9844 136.295H40.7366C41.5097 136.295 42.0909 136.411 42.4803 136.642C42.8696 136.874 43.0643 137.267 43.0643 137.823C43.0643 138.063 43.0178 138.279 42.9247 138.471C42.8344 138.66 42.7018 138.816 42.5268 138.941C42.3519 139.065 42.136 139.151 41.8793 139.199V139.241C42.1502 139.283 42.39 139.361 42.5988 139.474C42.8076 139.587 42.9712 139.745 43.0897 139.948C43.2082 140.151 43.2675 140.409 43.2675 140.722C43.2675 141.103 43.1786 141.425 43.0008 141.687C42.8259 141.95 42.5776 142.149 42.256 142.284C41.9343 142.417 41.5534 142.483 41.1132 142.483H38.9844V136.295ZM39.7039 138.949H40.8889C41.4278 138.949 41.8003 138.86 42.0063 138.682C42.215 138.505 42.3194 138.245 42.3194 137.904C42.3194 137.551 42.1953 137.297 41.947 137.142C41.7015 136.987 41.3093 136.909 40.7704 136.909H39.7039V138.949ZM39.7039 139.554V141.869H40.9905C41.5407 141.869 41.9301 141.762 42.1586 141.548C42.3872 141.33 42.5014 141.038 42.5014 140.672C42.5014 140.437 42.4492 140.237 42.3448 140.071C42.2433 139.904 42.0768 139.777 41.8454 139.69C41.6169 139.599 41.3107 139.554 40.927 139.554H39.7039ZM48.3124 137.844V142.483H47.7368L47.6352 141.831H47.5971C47.5012 141.992 47.377 142.128 47.2247 142.238C47.0723 142.348 46.9002 142.429 46.7083 142.483C46.5193 142.539 46.3176 142.568 46.1031 142.568C45.7363 142.568 45.4288 142.508 45.1805 142.39C44.9322 142.271 44.7445 142.088 44.6176 141.84C44.4934 141.591 44.4314 141.273 44.4314 140.883V137.844H45.1424V140.832C45.1424 141.219 45.2299 141.508 45.4048 141.7C45.5797 141.889 45.8464 141.984 46.2047 141.984C46.5489 141.984 46.8226 141.919 47.0258 141.789C47.2317 141.659 47.3799 141.469 47.4701 141.218C47.5604 140.964 47.6056 140.653 47.6056 140.286V137.844H48.3124ZM51.093 144.565C50.4835 144.565 50.0138 144.451 49.6836 144.223C49.3535 143.997 49.1885 143.679 49.1885 143.27C49.1885 142.98 49.2802 142.731 49.4636 142.525C49.6498 142.319 49.9065 142.183 50.2338 142.115C50.1125 142.058 50.0081 141.974 49.9206 141.861C49.836 141.748 49.7937 141.618 49.7937 141.472C49.7937 141.302 49.8402 141.154 49.9333 141.027C50.0293 140.897 50.1746 140.773 50.3693 140.655C50.1266 140.556 49.9291 140.389 49.7767 140.155C49.6272 139.918 49.5524 139.643 49.5524 139.33C49.5524 138.997 49.6216 138.713 49.7598 138.479C49.8981 138.242 50.0984 138.062 50.3608 137.938C50.6232 137.813 50.9406 137.751 51.3131 137.751C51.3949 137.751 51.4767 137.756 51.5585 137.764C51.6432 137.77 51.7236 137.78 51.7998 137.794C51.876 137.805 51.9423 137.819 51.9987 137.836H53.59V138.289L52.7351 138.395C52.8198 138.505 52.8903 138.637 52.9467 138.792C53.0032 138.948 53.0314 139.12 53.0314 139.309C53.0314 139.772 52.8748 140.14 52.5616 140.413C52.2484 140.684 51.8181 140.82 51.2707 140.82C51.141 140.82 51.0083 140.808 50.8729 140.786C50.7347 140.862 50.6288 140.947 50.5555 141.04C50.4849 141.133 50.4497 141.24 50.4497 141.361C50.4497 141.452 50.4765 141.524 50.5301 141.577C50.5865 141.631 50.6669 141.67 50.7713 141.696C50.8757 141.718 51.0013 141.73 51.148 141.73H51.9648C52.4699 141.73 52.8564 141.835 53.1245 142.047C53.3954 142.259 53.5308 142.568 53.5308 142.974C53.5308 143.487 53.322 143.881 52.9044 144.155C52.4868 144.428 51.883 144.565 51.093 144.565ZM51.1142 144.015C51.4979 144.015 51.8153 143.976 52.0664 143.897C52.3204 143.82 52.5094 143.709 52.6335 143.562C52.7605 143.418 52.824 143.246 52.824 143.046C52.824 142.86 52.7817 142.719 52.697 142.623C52.6124 142.53 52.4882 142.468 52.3246 142.436C52.1609 142.403 51.9606 142.386 51.7236 142.386H50.9195C50.7107 142.386 50.5287 142.418 50.3735 142.483C50.2183 142.548 50.0984 142.644 50.0138 142.771C49.9319 142.898 49.891 143.056 49.891 143.245C49.891 143.496 49.9968 143.686 50.2084 143.816C50.4201 143.949 50.722 144.015 51.1142 144.015ZM51.2961 140.308C51.6319 140.308 51.8844 140.223 52.0537 140.054C52.223 139.884 52.3077 139.638 52.3077 139.313C52.3077 138.966 52.2216 138.706 52.0495 138.534C51.8774 138.359 51.6234 138.272 51.2877 138.272C50.966 138.272 50.7177 138.362 50.5428 138.543C50.3707 138.721 50.2846 138.982 50.2846 139.326C50.2846 139.642 50.3721 139.884 50.547 140.054C50.722 140.223 50.9717 140.308 51.2961 140.308Z" fill="#383E40"/>
<circle cx="27.4478" cy="138.973" r="6.64527" stroke="#DCE1E5" stroke-width="0.577849"/>
<circle cx="27.4478" cy="122.793" r="4.91172" stroke="#348FE2" stroke-width="3.46709"/>
<path d="M12.4564 160.244C13.2017 160.244 13.7455 160.405 14.0878 160.726C14.4302 161.045 14.6013 161.484 14.6013 162.045C14.6013 162.298 14.5632 162.54 14.4868 162.772C14.4104 163.001 14.2853 163.205 14.1115 163.384C13.9404 163.564 13.7112 163.706 13.4242 163.811C13.1372 163.914 12.783 163.965 12.3616 163.965H11.8362V166.019H10.6117V160.244H12.4564ZM12.3932 161.247H11.8362V162.962H12.2392C12.4683 162.962 12.6671 162.932 12.8356 162.871C13.0042 162.81 13.1345 162.716 13.2267 162.587C13.3189 162.458 13.3649 162.292 13.3649 162.089C13.3649 161.804 13.2859 161.594 13.1279 161.457C12.9699 161.317 12.725 161.247 12.3932 161.247ZM18.0617 161.52C18.1222 161.52 18.192 161.524 18.271 161.532C18.3527 161.537 18.4185 161.545 18.4685 161.556L18.3777 162.685C18.3382 162.672 18.2816 162.663 18.2078 162.658C18.1367 162.65 18.0748 162.646 18.0222 162.646C17.8668 162.646 17.7154 162.666 17.5679 162.705C17.4231 162.745 17.2927 162.809 17.1768 162.899C17.061 162.986 16.9688 163.101 16.9003 163.246C16.8345 163.388 16.8016 163.564 16.8016 163.772V166.019H15.5968V161.603H16.5093L16.687 162.346H16.7463C16.8332 162.195 16.9411 162.059 17.0702 161.935C17.2019 161.808 17.3506 161.708 17.5165 161.635C17.6851 161.558 17.8668 161.52 18.0617 161.52ZM20.4752 161.603V166.019H19.2704V161.603H20.4752ZM19.8748 159.873C20.0539 159.873 20.2079 159.915 20.3369 159.999C20.466 160.081 20.5305 160.235 20.5305 160.461C20.5305 160.685 20.466 160.841 20.3369 160.927C20.2079 161.012 20.0539 161.054 19.8748 161.054C19.6931 161.054 19.5377 161.012 19.4087 160.927C19.2823 160.841 19.2191 160.685 19.2191 160.461C19.2191 160.235 19.2823 160.081 19.4087 159.999C19.5377 159.915 19.6931 159.873 19.8748 159.873ZM25.7565 163.803C25.7565 164.172 25.7065 164.498 25.6064 164.783C25.509 165.067 25.3655 165.308 25.1759 165.506C24.9889 165.701 24.7624 165.848 24.4964 165.948C24.2331 166.048 23.9355 166.098 23.6037 166.098C23.293 166.098 23.0072 166.048 22.7465 165.948C22.4885 165.848 22.2633 165.701 22.0711 165.506C21.8815 165.308 21.734 165.067 21.6286 164.783C21.5259 164.498 21.4746 164.172 21.4746 163.803C21.4746 163.313 21.5615 162.899 21.7353 162.559C21.9091 162.219 22.1566 161.961 22.4779 161.785C22.7992 161.608 23.1824 161.52 23.6274 161.52C24.0409 161.52 24.4069 161.608 24.7256 161.785C25.0468 161.961 25.2983 162.219 25.48 162.559C25.6644 162.899 25.7565 163.313 25.7565 163.803ZM22.7031 163.803C22.7031 164.093 22.7347 164.336 22.7979 164.534C22.8611 164.731 22.9598 164.88 23.0941 164.98C23.2284 165.08 23.4036 165.13 23.6195 165.13C23.8328 165.13 24.0053 165.08 24.137 164.98C24.2713 164.88 24.3687 164.731 24.4293 164.534C24.4925 164.336 24.5241 164.093 24.5241 163.803C24.5241 163.511 24.4925 163.269 24.4293 163.076C24.3687 162.881 24.2713 162.735 24.137 162.638C24.0027 162.54 23.8276 162.492 23.6116 162.492C23.293 162.492 23.0612 162.601 22.9164 162.82C22.7742 163.038 22.7031 163.366 22.7031 163.803ZM29.2169 161.52C29.2774 161.52 29.3472 161.524 29.4262 161.532C29.5079 161.537 29.5737 161.545 29.6237 161.556L29.5329 162.685C29.4934 162.672 29.4368 162.663 29.363 162.658C29.2919 162.65 29.23 162.646 29.1774 162.646C29.022 162.646 28.8706 162.666 28.7231 162.705C28.5783 162.745 28.4479 162.809 28.332 162.899C28.2162 162.986 28.124 163.101 28.0555 163.246C27.9897 163.388 27.9568 163.564 27.9568 163.772V166.019H26.752V161.603H27.6645L27.8422 162.346H27.9015C27.9884 162.195 28.0963 162.059 28.2254 161.935C28.357 161.808 28.5058 161.708 28.6717 161.635C28.8403 161.558 29.022 161.52 29.2169 161.52ZM31.6304 161.603V166.019H30.4256V161.603H31.6304ZM31.03 159.873C31.209 159.873 31.3631 159.915 31.4921 159.999C31.6212 160.081 31.6857 160.235 31.6857 160.461C31.6857 160.685 31.6212 160.841 31.4921 160.927C31.3631 161.012 31.209 161.054 31.03 161.054C30.8483 161.054 30.6929 161.012 30.5639 160.927C30.4375 160.841 30.3743 160.685 30.3743 160.461C30.3743 160.235 30.4375 160.081 30.5639 159.999C30.6929 159.915 30.8483 159.873 31.03 159.873ZM34.7589 165.138C34.8906 165.138 35.0183 165.125 35.1421 165.099C35.2685 165.073 35.3936 165.04 35.5173 165V165.897C35.3883 165.955 35.2277 166.002 35.0354 166.039C34.8458 166.078 34.6378 166.098 34.4113 166.098C34.148 166.098 33.9109 166.056 33.7003 165.972C33.4922 165.885 33.3276 165.736 33.2065 165.525C33.088 165.312 33.0287 165.016 33.0287 164.637V162.508H32.452V161.998L33.1156 161.595L33.4633 160.663H34.2335V161.603H35.4699V162.508H34.2335V164.637C34.2335 164.805 34.2809 164.932 34.3757 165.016C34.4732 165.098 34.6009 165.138 34.7589 165.138ZM35.782 161.603H37.1013L37.9348 164.088C37.9612 164.167 37.9835 164.247 38.002 164.329C38.0204 164.41 38.0362 164.494 38.0494 164.581C38.0625 164.668 38.0731 164.759 38.081 164.854H38.1047C38.1205 164.712 38.1415 164.579 38.1679 164.455C38.1968 164.331 38.2324 164.209 38.2745 164.088L39.0922 161.603H40.3839L38.5155 166.584C38.4023 166.89 38.2548 167.144 38.0731 167.346C37.8914 167.552 37.682 167.706 37.445 167.809C37.2106 167.911 36.9526 167.963 36.6708 167.963C36.5338 167.963 36.4153 167.955 36.3153 167.939C36.2152 167.926 36.1296 167.911 36.0585 167.896V166.94C36.1138 166.953 36.1836 166.965 36.2679 166.975C36.3521 166.986 36.4404 166.991 36.5325 166.991C36.7011 166.991 36.8459 166.955 36.967 166.884C37.0882 166.813 37.1896 166.717 37.2712 166.596C37.3528 166.477 37.4174 166.347 37.4648 166.205L37.5359 165.988L35.782 161.603Z" fill="#2D353C"/>
<rect x="10.1123" y="173.066" width="339.197" height="23.114" rx="2.60032" fill="white" stroke="#DCE1E5" stroke-width="0.577849"/>
<path d="M14.1031 215.844C14.1031 216.186 14.0201 216.484 13.8542 216.737C13.6883 216.99 13.446 217.185 13.1274 217.321C12.8114 217.458 12.4269 217.527 11.9739 217.527C11.7738 217.527 11.5776 217.514 11.3854 217.487C11.1958 217.461 11.0127 217.423 10.8363 217.373C10.6625 217.32 10.4966 217.256 10.3386 217.179V216.042C10.6125 216.163 10.8969 216.272 11.1918 216.369C11.4868 216.467 11.7791 216.516 12.0687 216.516C12.2689 216.516 12.4295 216.489 12.5507 216.437C12.6744 216.384 12.764 216.312 12.8193 216.219C12.8746 216.127 12.9022 216.022 12.9022 215.903C12.9022 215.759 12.8535 215.635 12.7561 215.532C12.6586 215.429 12.5243 215.333 12.3531 215.244C12.1846 215.154 11.9937 215.058 11.7804 214.955C11.6461 214.892 11.4999 214.816 11.3419 214.726C11.1839 214.634 11.0338 214.522 10.8916 214.39C10.7494 214.259 10.6322 214.099 10.54 213.913C10.4505 213.723 10.4057 213.496 10.4057 213.233C10.4057 212.888 10.4847 212.593 10.6427 212.348C10.8007 212.103 11.0259 211.916 11.3182 211.787C11.6132 211.656 11.9608 211.59 12.361 211.59C12.6613 211.59 12.947 211.625 13.2182 211.696C13.4921 211.765 13.7778 211.865 14.0754 211.997L13.6804 212.949C13.4144 212.841 13.1761 212.758 12.9654 212.7C12.7547 212.639 12.5401 212.609 12.3215 212.609C12.1688 212.609 12.0385 212.634 11.9305 212.684C11.8225 212.731 11.7409 212.8 11.6856 212.889C11.6303 212.976 11.6026 213.078 11.6026 213.194C11.6026 213.331 11.6421 213.446 11.7211 213.541C11.8028 213.633 11.9239 213.723 12.0845 213.81C12.2478 213.897 12.4506 213.998 12.6929 214.114C12.9878 214.254 13.2393 214.4 13.4473 214.552C13.658 214.703 13.82 214.88 13.9332 215.086C14.0464 215.288 14.1031 215.541 14.1031 215.844ZM16.9156 216.567C17.0472 216.567 17.175 216.554 17.2987 216.527C17.4251 216.501 17.5502 216.468 17.674 216.429V217.325C17.5449 217.383 17.3843 217.431 17.1921 217.468C17.0025 217.507 16.7944 217.527 16.5679 217.527C16.3046 217.527 16.0676 217.485 15.8569 217.4C15.6489 217.314 15.4843 217.165 15.3632 216.954C15.2447 216.741 15.1854 216.445 15.1854 216.065V213.936H14.6087V213.427L15.2723 213.024L15.6199 212.091H16.3902V213.032H17.6266V213.936H16.3902V216.065C16.3902 216.234 16.4376 216.36 16.5324 216.445C16.6298 216.526 16.7576 216.567 16.9156 216.567ZM20.3798 212.941C20.9724 212.941 21.4266 213.07 21.7426 213.328C22.0586 213.586 22.2166 213.978 22.2166 214.505V217.448H21.3753L21.1422 216.847H21.1106C20.9842 217.005 20.8552 217.134 20.7235 217.235C20.5918 217.335 20.4404 217.408 20.2692 217.456C20.0981 217.503 19.89 217.527 19.6451 217.527C19.3844 217.527 19.15 217.477 18.942 217.377C18.7366 217.277 18.5746 217.124 18.4561 216.919C18.3376 216.711 18.2784 216.447 18.2784 216.129C18.2784 215.66 18.4429 215.315 18.7721 215.094C19.1013 214.87 19.5951 214.746 20.2534 214.722L21.0198 214.699V214.505C21.0198 214.273 20.9592 214.103 20.838 213.995C20.7169 213.887 20.5484 213.833 20.3324 213.833C20.1191 213.833 19.9098 213.864 19.7044 213.924C19.499 213.985 19.2935 214.061 19.0881 214.153L18.6892 213.34C18.9235 213.216 19.1856 213.119 19.4753 213.047C19.7676 212.976 20.0691 212.941 20.3798 212.941ZM21.0198 215.402L20.5536 215.418C20.1639 215.428 19.8926 215.498 19.7399 215.627C19.5898 215.756 19.5148 215.926 19.5148 216.136C19.5148 216.321 19.5687 216.452 19.6767 216.531C19.7847 216.608 19.9256 216.646 20.0994 216.646C20.3574 216.646 20.5747 216.57 20.7511 216.417C20.9302 216.264 21.0198 216.047 21.0198 215.765V215.402ZM25.3215 216.567C25.4531 216.567 25.5809 216.554 25.7046 216.527C25.831 216.501 25.9561 216.468 26.0799 216.429V217.325C25.9508 217.383 25.7902 217.431 25.598 217.468C25.4084 217.507 25.2003 217.527 24.9738 217.527C24.7105 217.527 24.4735 217.485 24.2628 217.4C24.0548 217.314 23.8902 217.165 23.7691 216.954C23.6505 216.741 23.5913 216.445 23.5913 216.065V213.936H23.0146V213.427L23.6782 213.024L24.0258 212.091H24.7961V213.032H26.0325V213.936H24.7961V216.065C24.7961 216.234 24.8435 216.36 24.9383 216.445C25.0357 216.526 25.1635 216.567 25.3215 216.567ZM31.0294 213.032V217.448H30.1051L29.9431 216.883H29.8799C29.7851 217.033 29.6666 217.156 29.5244 217.25C29.3822 217.345 29.2255 217.415 29.0543 217.46C28.8832 217.504 28.7054 217.527 28.5211 217.527C28.2051 217.527 27.9299 217.472 27.6955 217.361C27.4611 217.248 27.2781 217.073 27.1464 216.836C27.0174 216.599 26.9529 216.29 26.9529 215.911V213.032H28.1577V215.611C28.1577 215.927 28.2143 216.165 28.3275 216.326C28.4408 216.487 28.6211 216.567 28.8687 216.567C29.1136 216.567 29.3058 216.512 29.4454 216.401C29.585 216.288 29.6824 216.123 29.7377 215.907C29.7956 215.689 29.8246 215.423 29.8246 215.109V213.032H31.0294ZM35.3746 216.136C35.3746 216.437 35.3035 216.691 35.1613 216.899C35.0217 217.104 34.8123 217.261 34.5332 217.369C34.254 217.474 33.9064 217.527 33.4903 217.527C33.1822 217.527 32.9176 217.507 32.6964 217.468C32.4778 217.428 32.2566 217.362 32.0327 217.27V216.275C32.2724 216.383 32.5291 216.472 32.803 216.543C33.0795 216.612 33.3218 216.646 33.5298 216.646C33.7642 216.646 33.9314 216.612 34.0315 216.543C34.1342 216.472 34.1856 216.38 34.1856 216.267C34.1856 216.193 34.1645 216.127 34.1224 216.069C34.0829 216.009 33.996 215.942 33.8617 215.868C33.7274 215.791 33.5167 215.693 33.2296 215.572C32.9531 215.456 32.7253 215.339 32.5463 215.22C32.3698 215.101 32.2382 214.962 32.1512 214.801C32.067 214.638 32.0248 214.431 32.0248 214.181C32.0248 213.773 32.1828 213.466 32.4989 213.261C32.8175 213.053 33.2428 212.949 33.7748 212.949C34.0486 212.949 34.3093 212.976 34.5569 213.032C34.8071 213.087 35.0638 213.175 35.3272 213.296L34.9637 214.165C34.7452 214.071 34.5384 213.993 34.3436 213.932C34.1513 213.872 33.9551 213.841 33.755 213.841C33.5786 213.841 33.4456 213.865 33.356 213.913C33.2665 213.96 33.2217 214.032 33.2217 214.13C33.2217 214.201 33.2441 214.264 33.2889 214.319C33.3363 214.375 33.4258 214.437 33.5575 214.505C33.6918 214.571 33.888 214.656 34.1461 214.762C34.3962 214.864 34.6135 214.972 34.7978 215.086C34.9822 215.196 35.1244 215.335 35.2245 215.5C35.3245 215.664 35.3746 215.876 35.3746 216.136Z" fill="#2D353C"/>
<rect x="10.1123" y="223.917" width="339.197" height="23.6918" rx="2.60032" fill="white" stroke="#DCE1E5" stroke-width="0.577849"/>
<path d="M15.2893 265.933C15.2893 266.584 15.1642 267.128 14.9141 267.565C14.6665 267.999 14.3071 268.327 13.8357 268.548C13.3643 268.767 12.7968 268.876 12.1332 268.876H10.4978V263.101H12.3109C12.9166 263.101 13.442 263.209 13.887 263.425C14.3321 263.638 14.677 263.956 14.922 264.377C15.1669 264.796 15.2893 265.315 15.2893 265.933ZM14.0174 265.965C14.0174 265.538 13.9542 265.188 13.8278 264.914C13.704 264.638 13.5197 264.434 13.2748 264.302C13.0325 264.17 12.7323 264.105 12.3741 264.105H11.7223V267.865H12.2477C12.8455 267.865 13.2892 267.706 13.5789 267.387C13.8712 267.068 14.0174 266.594 14.0174 265.965ZM18.2006 264.369C18.7931 264.369 19.2474 264.498 19.5634 264.756C19.8794 265.014 20.0374 265.407 20.0374 265.933V268.876H19.196L18.963 268.276H18.9314C18.8049 268.434 18.6759 268.563 18.5442 268.663C18.4126 268.763 18.2611 268.837 18.09 268.884C17.9188 268.932 17.7108 268.955 17.4658 268.955C17.2051 268.955 16.9708 268.905 16.7627 268.805C16.5573 268.705 16.3954 268.552 16.2769 268.347C16.1584 268.139 16.0991 267.876 16.0991 267.557C16.0991 267.088 16.2637 266.743 16.5929 266.522C16.922 266.298 17.4158 266.174 18.0742 266.151L18.8405 266.127V265.933C18.8405 265.702 18.7799 265.532 18.6588 265.424C18.5377 265.316 18.3691 265.262 18.1532 265.262C17.9399 265.262 17.7305 265.292 17.5251 265.353C17.3197 265.413 17.1143 265.49 16.9089 265.582L16.5099 264.768C16.7443 264.644 17.0063 264.547 17.296 264.476C17.5883 264.405 17.8898 264.369 18.2006 264.369ZM18.8405 266.83L18.3744 266.846C17.9846 266.857 17.7134 266.926 17.5607 267.055C17.4105 267.184 17.3355 267.354 17.3355 267.565C17.3355 267.749 17.3895 267.881 17.4975 267.96C17.6054 268.036 17.7463 268.074 17.9201 268.074C18.1782 268.074 18.3954 267.998 18.5719 267.845C18.751 267.693 18.8405 267.475 18.8405 267.194V266.83ZM23.1422 267.995C23.2739 267.995 23.4016 267.982 23.5254 267.956C23.6518 267.93 23.7769 267.897 23.9006 267.857V268.754C23.7716 268.812 23.6109 268.859 23.4187 268.896C23.2291 268.936 23.0211 268.955 22.7946 268.955C22.5312 268.955 22.2942 268.913 22.0836 268.829C21.8755 268.742 21.7109 268.593 21.5898 268.383C21.4713 268.169 21.412 267.873 21.412 267.494V265.365H20.8353V264.855L21.4989 264.452L21.8466 263.52H22.6168V264.46H23.8532V265.365H22.6168V267.494C22.6168 267.662 22.6642 267.789 22.759 267.873C22.8565 267.955 22.9842 267.995 23.1422 267.995ZM26.6183 264.377C27.0265 264.377 27.3781 264.456 27.673 264.614C27.968 264.77 28.1957 264.996 28.3564 265.294C28.517 265.591 28.5973 265.955 28.5973 266.384V266.968H25.7493C25.7625 267.308 25.8638 267.575 26.0535 267.77C26.2457 267.963 26.5117 268.059 26.8514 268.059C27.1332 268.059 27.3912 268.03 27.6256 267.972C27.86 267.914 28.1009 267.827 28.3485 267.711V268.643C28.1299 268.751 27.9008 268.83 27.6612 268.88C27.4242 268.93 27.1358 268.955 26.7961 268.955C26.3537 268.955 25.9613 268.874 25.6189 268.71C25.2792 268.547 25.0119 268.298 24.8171 267.964C24.6248 267.629 24.5287 267.208 24.5287 266.7C24.5287 266.184 24.6156 265.754 24.7894 265.412C24.9658 265.067 25.2108 264.809 25.5241 264.638C25.8375 264.464 26.2022 264.377 26.6183 264.377ZM26.6262 265.234C26.3918 265.234 26.197 265.309 26.0416 265.459C25.8889 265.61 25.8006 265.845 25.7769 266.167H27.4676C27.465 265.987 27.4321 265.828 27.3688 265.689C27.3083 265.549 27.2161 265.438 27.0923 265.357C26.9712 265.275 26.8158 265.234 26.6262 265.234Z" fill="#2D353C"/>
<rect x="10.1123" y="274.767" width="339.197" height="24.2697" rx="2.60032" fill="white" stroke="#DCE1E5" stroke-width="0.577849"/>
<path d="M15.7673 317.362C15.7673 318.013 15.6422 318.556 15.392 318.993C15.1445 319.428 14.785 319.756 14.3136 319.977C13.8423 320.196 13.2748 320.305 12.6111 320.305H10.9758V314.53H12.7889C13.3946 314.53 13.9199 314.638 14.365 314.854C14.81 315.067 15.155 315.384 15.3999 315.806C15.6448 316.224 15.7673 316.743 15.7673 317.362ZM14.4953 317.394C14.4953 316.967 14.4321 316.617 14.3057 316.343C14.182 316.066 13.9976 315.862 13.7527 315.731C13.5104 315.599 13.2102 315.533 12.8521 315.533H12.2003V319.294H12.7257C13.3235 319.294 13.7672 319.134 14.0569 318.816C14.3492 318.497 14.4953 318.023 14.4953 317.394ZM18.6904 315.806C19.0986 315.806 19.4501 315.885 19.7451 316.043C20.04 316.198 20.2678 316.425 20.4285 316.722C20.5891 317.02 20.6694 317.383 20.6694 317.812V318.397H17.8214C17.8345 318.737 17.9359 319.004 18.1255 319.199C18.3178 319.391 18.5837 319.487 18.9235 319.487C19.2052 319.487 19.4633 319.458 19.6977 319.4C19.9321 319.342 20.173 319.256 20.4206 319.14V320.072C20.202 320.18 19.9729 320.259 19.7332 320.309C19.4962 320.359 19.2079 320.384 18.8681 320.384C18.4257 320.384 18.0334 320.302 17.691 320.139C17.3513 319.976 17.084 319.727 16.8891 319.392C16.6969 319.058 16.6008 318.637 16.6008 318.128C16.6008 317.612 16.6877 317.183 16.8615 316.841C17.0379 316.496 17.2828 316.238 17.5962 316.066C17.9096 315.893 18.2743 315.806 18.6904 315.806ZM18.6983 316.663C18.4639 316.663 18.269 316.738 18.1137 316.888C17.9609 317.038 17.8727 317.274 17.849 317.595H19.5397C19.537 317.416 19.5041 317.257 19.4409 317.117C19.3804 316.978 19.2882 316.867 19.1644 316.785C19.0433 316.704 18.8879 316.663 18.6983 316.663ZM24.7302 318.993C24.7302 319.294 24.6591 319.548 24.5168 319.756C24.3773 319.961 24.1679 320.118 23.8888 320.226C23.6096 320.331 23.262 320.384 22.8459 320.384C22.5378 320.384 22.2732 320.364 22.052 320.325C21.8334 320.285 21.6122 320.219 21.3883 320.127V319.132C21.628 319.24 21.8847 319.329 22.1586 319.4C22.4351 319.469 22.6774 319.503 22.8854 319.503C23.1198 319.503 23.287 319.469 23.3871 319.4C23.4898 319.329 23.5412 319.237 23.5412 319.124C23.5412 319.05 23.5201 318.984 23.478 318.926C23.4385 318.866 23.3516 318.799 23.2173 318.725C23.0829 318.649 22.8723 318.55 22.5852 318.429C22.3087 318.313 22.0809 318.196 21.9019 318.077C21.7254 317.959 21.5937 317.819 21.5068 317.658C21.4226 317.495 21.3804 317.288 21.3804 317.038C21.3804 316.63 21.5384 316.323 21.8545 316.118C22.1731 315.91 22.5984 315.806 23.1303 315.806C23.4042 315.806 23.6649 315.833 23.9125 315.889C24.1627 315.944 24.4194 316.032 24.6828 316.153L24.3193 317.022C24.1008 316.928 23.894 316.85 23.6992 316.789C23.5069 316.729 23.3107 316.698 23.1106 316.698C22.9342 316.698 22.8012 316.722 22.7116 316.77C22.6221 316.817 22.5773 316.889 22.5773 316.987C22.5773 317.058 22.5997 317.121 22.6445 317.176C22.6919 317.232 22.7814 317.294 22.9131 317.362C23.0474 317.428 23.2436 317.513 23.5017 317.619C23.7518 317.722 23.9691 317.83 24.1534 317.943C24.3378 318.053 24.48 318.192 24.5801 318.358C24.6801 318.521 24.7302 318.733 24.7302 318.993ZM27.4637 320.384C27.0265 320.384 26.6539 320.305 26.3458 320.147C26.0377 319.986 25.8033 319.739 25.6426 319.404C25.482 319.07 25.4017 318.642 25.4017 318.121C25.4017 317.581 25.4925 317.141 25.6742 316.801C25.8586 316.459 26.1127 316.207 26.4366 316.047C26.7632 315.886 27.1411 315.806 27.5703 315.806C27.8758 315.806 28.1391 315.836 28.3603 315.897C28.5842 315.955 28.779 316.024 28.945 316.106L28.5894 317.038C28.3998 316.962 28.2234 316.9 28.0601 316.853C27.8969 316.802 27.7336 316.777 27.5703 316.777C27.3596 316.777 27.1845 316.827 27.0449 316.928C26.9054 317.025 26.8013 317.172 26.7329 317.37C26.6644 317.567 26.6302 317.815 26.6302 318.113C26.6302 318.405 26.667 318.647 26.7408 318.839C26.8145 319.032 26.9212 319.175 27.0607 319.27C27.2003 319.362 27.3702 319.408 27.5703 319.408C27.8205 319.408 28.043 319.375 28.2379 319.309C28.4328 319.241 28.6224 319.146 28.8067 319.025V320.056C28.6224 320.172 28.4288 320.255 28.226 320.305C28.0259 320.358 27.7718 320.384 27.4637 320.384ZM32.2986 315.806C32.3592 315.806 32.429 315.81 32.508 315.818C32.5896 315.823 32.6555 315.831 32.7055 315.841L32.6146 316.971C32.5751 316.958 32.5185 316.949 32.4448 316.943C32.3737 316.935 32.3118 316.932 32.2591 316.932C32.1038 316.932 31.9523 316.951 31.8049 316.991C31.66 317.03 31.5297 317.095 31.4138 317.184C31.2979 317.271 31.2058 317.387 31.1373 317.532C31.0714 317.674 31.0385 317.849 31.0385 318.057V320.305H29.8337V315.889H30.7462L30.924 316.631H30.9832C31.0701 316.481 31.1781 316.344 31.3071 316.22C31.4388 316.094 31.5876 315.994 31.7535 315.92C31.922 315.844 32.1038 315.806 32.2986 315.806ZM34.7122 315.889V320.305H33.5074V315.889H34.7122ZM34.1117 314.159C34.2908 314.159 34.4449 314.201 34.5739 314.285C34.7029 314.367 34.7675 314.521 34.7675 314.747C34.7675 314.971 34.7029 315.126 34.5739 315.213C34.4449 315.297 34.2908 315.34 34.1117 315.34C33.93 315.34 33.7747 315.297 33.6456 315.213C33.5192 315.126 33.456 314.971 33.456 314.747C33.456 314.521 33.5192 314.367 33.6456 314.285C33.7747 314.201 33.93 314.159 34.1117 314.159ZM38.4371 315.806C38.9349 315.806 39.3365 315.999 39.6419 316.386C39.95 316.774 40.1041 317.341 40.1041 318.089C40.1041 318.589 40.0317 319.011 39.8868 319.353C39.742 319.693 39.5419 319.949 39.2864 320.123C39.031 320.297 38.7374 320.384 38.4055 320.384C38.1922 320.384 38.0092 320.358 37.8565 320.305C37.7037 320.25 37.5734 320.18 37.4654 320.096C37.3574 320.009 37.264 319.917 37.1849 319.819H37.1217C37.1428 319.924 37.1586 320.032 37.1691 320.143C37.1797 320.254 37.1849 320.362 37.1849 320.467V322.248H35.9802V315.889H36.9598L37.1296 316.461H37.1849C37.264 316.343 37.3601 316.234 37.4733 316.134C37.5865 316.034 37.7222 315.955 37.8802 315.897C38.0408 315.836 38.2265 315.806 38.4371 315.806ZM38.05 316.77C37.8394 316.77 37.6721 316.813 37.5484 316.9C37.4246 316.987 37.3337 317.117 37.2758 317.291C37.2205 317.465 37.1902 317.685 37.1849 317.951V318.081C37.1849 318.365 37.2113 318.606 37.264 318.804C37.3193 319.001 37.4101 319.151 37.5365 319.254C37.6655 319.357 37.842 319.408 38.0658 319.408C38.2502 319.408 38.4016 319.357 38.5201 319.254C38.6386 319.151 38.7268 319.001 38.7848 318.804C38.8453 318.604 38.8756 318.36 38.8756 318.073C38.8756 317.641 38.8085 317.316 38.6742 317.097C38.5398 316.879 38.3318 316.77 38.05 316.77ZM42.9601 319.424C43.0917 319.424 43.2194 319.411 43.3432 319.385C43.4696 319.358 43.5947 319.325 43.7185 319.286V320.182C43.5894 320.24 43.4288 320.288 43.2366 320.325C43.047 320.364 42.8389 320.384 42.6124 320.384C42.3491 320.384 42.1121 320.342 41.9014 320.258C41.6934 320.171 41.5288 320.022 41.4076 319.811C41.2891 319.598 41.2299 319.302 41.2299 318.922V316.793H40.6532V316.284L41.3168 315.881L41.6644 314.949H42.4347V315.889H43.6711V316.793H42.4347V318.922C42.4347 319.091 42.4821 319.217 42.5769 319.302C42.6743 319.383 42.802 319.424 42.9601 319.424ZM45.82 315.889V320.305H44.6152V315.889H45.82ZM45.2195 314.159C45.3986 314.159 45.5527 314.201 45.6817 314.285C45.8107 314.367 45.8753 314.521 45.8753 314.747C45.8753 314.971 45.8107 315.126 45.6817 315.213C45.5527 315.297 45.3986 315.34 45.2195 315.34C45.0378 315.34 44.8825 315.297 44.7534 315.213C44.627 315.126 44.5638 314.971 44.5638 314.747C44.5638 314.521 44.627 314.367 44.7534 314.285C44.8825 314.201 45.0378 314.159 45.2195 314.159ZM51.1013 318.089C51.1013 318.458 51.0513 318.784 50.9512 319.069C50.8537 319.353 50.7102 319.594 50.5206 319.791C50.3336 319.986 50.1072 320.134 49.8412 320.234C49.5779 320.334 49.2803 320.384 48.9485 320.384C48.6377 320.384 48.352 320.334 48.0913 320.234C47.8332 320.134 47.608 319.986 47.4158 319.791C47.2262 319.594 47.0787 319.353 46.9734 319.069C46.8707 318.784 46.8193 318.458 46.8193 318.089C46.8193 317.599 46.9062 317.184 47.08 316.845C47.2539 316.505 47.5014 316.247 47.8227 316.07C48.144 315.894 48.5271 315.806 48.9722 315.806C49.3856 315.806 49.7517 315.894 50.0703 316.07C50.3916 316.247 50.6431 316.505 50.8248 316.845C51.0091 317.184 51.1013 317.599 51.1013 318.089ZM48.0478 318.089C48.0478 318.379 48.0794 318.622 48.1426 318.82C48.2058 319.017 48.3046 319.166 48.4389 319.266C48.5732 319.366 48.7483 319.416 48.9643 319.416C49.1776 319.416 49.3501 319.366 49.4817 319.266C49.616 319.166 49.7135 319.017 49.774 318.82C49.8372 318.622 49.8688 318.379 49.8688 318.089C49.8688 317.797 49.8372 317.554 49.774 317.362C49.7135 317.167 49.616 317.021 49.4817 316.924C49.3474 316.826 49.1723 316.777 48.9564 316.777C48.6377 316.777 48.406 316.887 48.2611 317.105C48.1189 317.324 48.0478 317.652 48.0478 318.089ZM54.6051 315.806C55.0764 315.806 55.4557 315.935 55.7427 316.193C56.0297 316.448 56.1733 316.859 56.1733 317.425V320.305H54.9685V317.725C54.9685 317.409 54.9105 317.171 54.7947 317.011C54.6814 316.85 54.5024 316.77 54.2575 316.77C53.8888 316.77 53.6373 316.895 53.503 317.145C53.3687 317.395 53.3015 317.756 53.3015 318.227V320.305H52.0967V315.889H53.0171L53.1791 316.454H53.2462C53.341 316.301 53.4582 316.177 53.5978 316.082C53.74 315.987 53.8967 315.918 54.0678 315.873C54.2417 315.828 54.4207 315.806 54.6051 315.806Z" fill="#2D353C"/>
<rect x="10.1123" y="326.774" width="339.197" height="140.417" rx="2.60032" stroke="#DCE1E5" stroke-width="0.577849"/>
<mask id="path-20-inside-2_6_46" fill="white">
<path d="M0 478.459H360V520.064C360 522.617 357.93 524.687 355.377 524.687H4.6228C2.0697 524.687 0 522.617 0 520.064V478.459Z"/>
</mask>
<path d="M0 478.459H360V520.064C360 522.617 357.93 524.687 355.377 524.687H4.6228C2.0697 524.687 0 522.617 0 520.064V478.459Z" fill="white"/>
<path d="M0 477.881H360V479.037H0V477.881ZM360 524.687H0H360ZM0 524.687V478.459V524.687ZM360 478.459V524.687V478.459Z" fill="#DCE1E5" mask="url(#path-20-inside-2_6_46)"/>
<rect x="311.461" y="490.594" width="38.138" height="23.6918" rx="2.88925" fill="#348FE2"/>
<path d="M324.926 503.966C324.926 504.332 324.837 504.651 324.659 504.922C324.482 505.193 324.222 505.402 323.881 505.548C323.542 505.695 323.13 505.768 322.645 505.768C322.43 505.768 322.22 505.754 322.014 505.726C321.811 505.698 321.615 505.657 321.426 505.603C321.24 505.547 321.062 505.478 320.893 505.396V504.177C321.186 504.307 321.491 504.424 321.807 504.528C322.123 504.633 322.436 504.685 322.746 504.685C322.961 504.685 323.133 504.657 323.263 504.6C323.395 504.544 323.491 504.466 323.551 504.368C323.61 504.269 323.639 504.156 323.639 504.029C323.639 503.874 323.587 503.741 323.483 503.631C323.378 503.521 323.235 503.418 323.051 503.322C322.871 503.226 322.666 503.123 322.437 503.013C322.294 502.946 322.137 502.864 321.968 502.768C321.798 502.669 321.638 502.549 321.485 502.408C321.333 502.267 321.207 502.096 321.109 501.896C321.013 501.693 320.965 501.45 320.965 501.168C320.965 500.798 321.049 500.482 321.219 500.22C321.388 499.958 321.629 499.757 321.942 499.619C322.258 499.478 322.631 499.407 323.06 499.407C323.381 499.407 323.687 499.445 323.978 499.522C324.271 499.595 324.578 499.702 324.896 499.843L324.473 500.863C324.188 500.748 323.933 500.659 323.707 500.597C323.481 500.532 323.252 500.499 323.017 500.499C322.854 500.499 322.714 500.526 322.598 500.58C322.483 500.63 322.395 500.704 322.336 500.8C322.277 500.893 322.247 501.002 322.247 501.126C322.247 501.272 322.289 501.397 322.374 501.498C322.461 501.597 322.591 501.693 322.763 501.786C322.938 501.879 323.156 501.988 323.415 502.112C323.731 502.261 324.001 502.418 324.224 502.582C324.449 502.742 324.623 502.933 324.744 503.153C324.865 503.37 324.926 503.641 324.926 503.966ZM327.884 500.855C328.519 500.855 329.006 500.993 329.345 501.27C329.683 501.546 329.852 501.966 329.852 502.531V505.684H328.951L328.701 505.041H328.667C328.532 505.21 328.394 505.348 328.253 505.455C328.112 505.563 327.949 505.642 327.766 505.692C327.583 505.743 327.36 505.768 327.097 505.768C326.818 505.768 326.567 505.715 326.344 505.608C326.124 505.5 325.95 505.337 325.823 505.117C325.696 504.894 325.633 504.612 325.633 504.27C325.633 503.768 325.809 503.398 326.162 503.161C326.515 502.922 327.044 502.789 327.749 502.764L328.57 502.738V502.531C328.57 502.282 328.505 502.1 328.375 501.985C328.246 501.869 328.065 501.811 327.834 501.811C327.605 501.811 327.381 501.844 327.161 501.909C326.941 501.974 326.721 502.055 326.5 502.154L326.073 501.282C326.324 501.15 326.605 501.045 326.915 500.969C327.228 500.893 327.552 500.855 327.884 500.855ZM328.57 503.492L328.071 503.508C327.653 503.52 327.362 503.594 327.199 503.733C327.038 503.871 326.958 504.053 326.958 504.279C326.958 504.476 327.015 504.617 327.131 504.702C327.247 504.784 327.398 504.825 327.584 504.825C327.86 504.825 328.093 504.743 328.282 504.579C328.474 504.416 328.57 504.183 328.57 503.881V503.492ZM332.311 505.684L330.508 500.952H331.859L332.773 503.648C332.824 503.806 332.863 503.973 332.891 504.148C332.922 504.322 332.943 504.479 332.955 504.617H332.989C332.997 504.468 333.017 504.308 333.048 504.139C333.082 503.97 333.125 503.806 333.179 503.648L334.089 500.952H335.439L333.636 505.684H332.311ZM338.072 500.863C338.509 500.863 338.886 500.948 339.202 501.117C339.518 501.284 339.762 501.526 339.934 501.845C340.106 502.164 340.192 502.553 340.192 503.013V503.64H337.14C337.155 504.004 337.263 504.29 337.466 504.499C337.672 504.705 337.957 504.808 338.321 504.808C338.623 504.808 338.9 504.777 339.151 504.715C339.402 504.653 339.66 504.559 339.925 504.435V505.434C339.691 505.55 339.446 505.634 339.189 505.688C338.935 505.742 338.626 505.768 338.262 505.768C337.788 505.768 337.368 505.681 337.001 505.506C336.637 505.331 336.35 505.065 336.142 504.706C335.936 504.348 335.833 503.896 335.833 503.352C335.833 502.799 335.926 502.339 336.112 501.972C336.301 501.602 336.563 501.326 336.899 501.143C337.235 500.956 337.626 500.863 338.072 500.863ZM338.08 501.782C337.829 501.782 337.62 501.862 337.454 502.023C337.29 502.184 337.196 502.436 337.17 502.78H338.982C338.979 502.589 338.943 502.418 338.876 502.268C338.811 502.119 338.712 502 338.579 501.913C338.45 501.825 338.283 501.782 338.08 501.782Z" fill="white"/>
<rect x="259.743" y="490.883" width="45.0722" height="23.114" rx="2.60032" stroke="#DCE1E5" stroke-width="0.577849"/>
<path d="M272.546 500.632C272.27 500.632 272.022 500.682 271.804 500.782C271.588 500.882 271.405 501.027 271.255 501.216C271.104 501.403 270.99 501.631 270.911 501.9C270.832 502.166 270.792 502.466 270.792 502.8C270.792 503.248 270.856 503.634 270.982 503.958C271.108 504.279 271.301 504.526 271.559 504.7C271.817 504.871 272.143 504.957 272.538 504.957C272.783 504.957 273.022 504.933 273.253 504.886C273.485 504.839 273.725 504.774 273.972 504.692V505.498C273.738 505.59 273.501 505.658 273.261 505.7C273.022 505.742 272.745 505.763 272.432 505.763C271.842 505.763 271.352 505.64 270.962 505.395C270.575 505.151 270.285 504.806 270.093 504.361C269.904 503.915 269.809 503.394 269.809 502.796C269.809 502.359 269.869 501.959 269.99 501.595C270.112 501.232 270.288 500.919 270.52 500.655C270.752 500.389 271.037 500.185 271.377 500.043C271.719 499.898 272.11 499.826 272.55 499.826C272.84 499.826 273.124 499.859 273.403 499.925C273.685 499.988 273.946 500.079 274.186 500.197L273.854 500.979C273.654 500.884 273.444 500.803 273.226 500.734C273.007 500.666 272.781 500.632 272.546 500.632ZM276.832 501.228C277.385 501.228 277.803 501.351 278.084 501.595C278.369 501.84 278.511 502.222 278.511 502.741V505.684H277.851L277.674 505.064H277.642C277.518 505.222 277.39 505.352 277.259 505.455C277.127 505.557 276.974 505.634 276.801 505.684C276.629 505.737 276.42 505.763 276.172 505.763C275.912 505.763 275.679 505.715 275.473 505.621C275.268 505.523 275.106 505.376 274.987 505.178C274.869 504.981 274.81 504.731 274.81 504.428C274.81 503.977 274.977 503.639 275.311 503.413C275.648 503.186 276.157 503.061 276.836 503.037L277.595 503.01V502.78C277.595 502.478 277.523 502.262 277.381 502.133C277.242 502.004 277.044 501.939 276.789 501.939C276.57 501.939 276.358 501.971 276.153 502.034C275.947 502.097 275.747 502.175 275.552 502.267L275.252 501.611C275.465 501.498 275.708 501.406 275.979 501.335C276.253 501.264 276.537 501.228 276.832 501.228ZM277.591 503.594L277.026 503.614C276.562 503.63 276.237 503.709 276.05 503.851C275.863 503.993 275.77 504.188 275.77 504.436C275.77 504.652 275.834 504.81 275.963 504.91C276.092 505.007 276.262 505.056 276.473 505.056C276.794 505.056 277.06 504.965 277.271 504.783C277.484 504.599 277.591 504.329 277.591 503.973V503.594ZM282.09 501.228C282.582 501.228 282.965 501.356 283.239 501.611C283.516 501.864 283.654 502.271 283.654 502.832V505.684H282.726V503.006C282.726 502.666 282.656 502.412 282.516 502.243C282.377 502.072 282.161 501.987 281.869 501.987C281.445 501.987 281.15 502.117 280.984 502.378C280.82 502.638 280.739 503.016 280.739 503.511V505.684H279.811V501.311H280.533L280.664 501.904H280.715C280.81 501.751 280.927 501.626 281.067 501.528C281.209 501.428 281.367 501.353 281.541 501.303C281.717 501.253 281.9 501.228 282.09 501.228ZM286.715 505.763C286.302 505.763 285.944 505.683 285.641 505.522C285.338 505.361 285.105 505.115 284.942 504.783C284.778 504.451 284.697 504.03 284.697 503.519C284.697 502.987 284.786 502.553 284.965 502.216C285.145 501.879 285.392 501.63 285.708 501.469C286.027 501.308 286.391 501.228 286.802 501.228C287.063 501.228 287.299 501.254 287.509 501.307C287.723 501.357 287.903 501.419 288.051 501.493L287.774 502.235C287.613 502.17 287.449 502.114 287.28 502.069C287.112 502.025 286.95 502.002 286.794 502.002C286.539 502.002 286.326 502.059 286.154 502.172C285.986 502.285 285.86 502.454 285.775 502.678C285.694 502.902 285.653 503.179 285.653 503.511C285.653 503.833 285.695 504.104 285.779 504.325C285.863 504.544 285.989 504.709 286.154 504.823C286.32 504.933 286.524 504.989 286.767 504.989C287.006 504.989 287.221 504.96 287.411 504.902C287.6 504.844 287.779 504.769 287.948 504.677V505.482C287.782 505.577 287.604 505.647 287.415 505.692C287.225 505.739 286.992 505.763 286.715 505.763ZM290.717 501.228C291.107 501.228 291.441 501.308 291.72 501.469C291.999 501.63 292.214 501.857 292.364 502.152C292.514 502.447 292.589 502.8 292.589 503.211V503.709H289.67C289.681 504.133 289.794 504.459 290.01 504.688C290.228 504.918 290.534 505.032 290.926 505.032C291.205 505.032 291.456 505.006 291.677 504.953C291.901 504.898 292.131 504.817 292.368 504.712V505.467C292.149 505.569 291.927 505.644 291.7 505.692C291.474 505.739 291.203 505.763 290.887 505.763C290.457 505.763 290.08 505.68 289.753 505.514C289.429 505.345 289.175 505.095 288.991 504.763C288.809 504.432 288.718 504.02 288.718 503.527C288.718 503.037 288.801 502.621 288.967 502.279C289.133 501.936 289.366 501.676 289.666 501.497C289.966 501.318 290.317 501.228 290.717 501.228ZM290.717 501.927C290.425 501.927 290.188 502.022 290.006 502.212C289.827 502.401 289.721 502.679 289.69 503.045H291.681C291.678 502.827 291.641 502.633 291.57 502.464C291.502 502.296 291.396 502.164 291.254 502.069C291.115 501.975 290.935 501.927 290.717 501.927ZM294.568 505.684H293.636V499.537H294.568V505.684Z" fill="black"/>
<path d="M348.156 23.1348H346.358L344.631 20.3262L342.904 23.1348H341.218L343.682 19.3054L341.376 15.7097H343.113L344.712 18.3811L346.282 15.7097H347.978L345.647 19.3918L348.156 23.1348Z" fill="#A9A9A9"/>
</g>
<defs>
<clipPath id="clip0_6_46">
<rect width="360" height="524.687" fill="white"/>
</clipPath>
</defs>
</svg>
