<svg width="623" height="908" viewBox="0 0 623 908" fill="none" xmlns="http://www.w3.org/2000/svg">
<g clip-path="url(#clip0_5_326)">
<rect width="623" height="908" rx="8" fill="white"/>
<mask id="path-2-inside-1_5_326" fill="white">
<path d="M0 8C0 3.58172 3.58172 0 8 0H615C619.418 0 623 3.58172 623 8V67H0V8Z"/>
</mask>
<path d="M0 8C0 3.58172 3.58172 0 8 0H615C619.418 0 623 3.58172 623 8V67H0V8Z" fill="white"/>
<path d="M0 0H623H0ZM623 68H0V66H623V68ZM0 67V0V67ZM623 0V67V0Z" fill="#DCE1E5" mask="url(#path-2-inside-1_5_326)"/>
<path d="M27.834 40L26.9023 36.9414H22.2178L21.2861 40H18.3506L22.8857 27.0977H26.2168L30.7695 40H27.834ZM26.252 34.6562L25.3203 31.668C25.2617 31.4688 25.1826 31.2139 25.083 30.9033C24.9893 30.5869 24.8926 30.2676 24.793 29.9453C24.6992 29.6172 24.623 29.333 24.5645 29.0928C24.5059 29.333 24.4238 29.6318 24.3184 29.9893C24.2188 30.3408 24.1221 30.6748 24.0283 30.9912C23.9346 31.3076 23.8672 31.5332 23.8262 31.668L22.9033 34.6562H26.252ZM35.2959 40.1758C34.2002 40.1758 33.3066 39.748 32.6152 38.8926C31.9297 38.0312 31.5869 36.7686 31.5869 35.1045C31.5869 33.4229 31.9355 32.1514 32.6328 31.29C33.3301 30.4229 34.2412 29.9893 35.3662 29.9893C35.835 29.9893 36.248 30.0537 36.6055 30.1826C36.9629 30.3115 37.2705 30.4844 37.5283 30.7012C37.792 30.918 38.0146 31.1611 38.1963 31.4307H38.2842C38.249 31.2432 38.2051 30.9678 38.1523 30.6045C38.1055 30.2354 38.082 29.8574 38.082 29.4707V26.3242H40.7715V40H38.7148L38.1963 38.7256H38.082C37.9121 38.9951 37.6982 39.2412 37.4404 39.4639C37.1885 39.6807 36.8867 39.8535 36.5352 39.9824C36.1836 40.1113 35.7705 40.1758 35.2959 40.1758ZM36.2363 38.04C36.9688 38.04 37.4844 37.8232 37.7832 37.3896C38.0879 36.9502 38.249 36.291 38.2666 35.4121V35.1221C38.2666 34.167 38.1201 33.4375 37.8271 32.9336C37.5342 32.4238 36.9893 32.1689 36.1924 32.1689C35.6006 32.1689 35.1377 32.4238 34.8037 32.9336C34.4697 33.4434 34.3027 34.1787 34.3027 35.1396C34.3027 36.1006 34.4697 36.8242 34.8037 37.3105C35.1436 37.7969 35.6211 38.04 36.2363 38.04ZM46.6865 40.1758C45.5908 40.1758 44.6973 39.748 44.0059 38.8926C43.3203 38.0312 42.9775 36.7686 42.9775 35.1045C42.9775 33.4229 43.3262 32.1514 44.0234 31.29C44.7207 30.4229 45.6318 29.9893 46.7568 29.9893C47.2256 29.9893 47.6387 30.0537 47.9961 30.1826C48.3535 30.3115 48.6611 30.4844 48.9189 30.7012C49.1826 30.918 49.4053 31.1611 49.5869 31.4307H49.6748C49.6396 31.2432 49.5957 30.9678 49.543 30.6045C49.4961 30.2354 49.4727 29.8574 49.4727 29.4707V26.3242H52.1621V40H50.1055L49.5869 38.7256H49.4727C49.3027 38.9951 49.0889 39.2412 48.8311 39.4639C48.5791 39.6807 48.2773 39.8535 47.9258 39.9824C47.5742 40.1113 47.1611 40.1758 46.6865 40.1758ZM47.627 38.04C48.3594 38.04 48.875 37.8232 49.1738 37.3896C49.4785 36.9502 49.6396 36.291 49.6572 35.4121V35.1221C49.6572 34.167 49.5107 33.4375 49.2178 32.9336C48.9248 32.4238 48.3799 32.1689 47.583 32.1689C46.9912 32.1689 46.5283 32.4238 46.1943 32.9336C45.8604 33.4434 45.6934 34.1787 45.6934 35.1396C45.6934 36.1006 45.8604 36.8242 46.1943 37.3105C46.5342 37.7969 47.0117 38.04 47.627 38.04ZM64.8096 40H62.085V29.418H58.5957V27.1504H68.2988V29.418H64.8096V40ZM74.0908 29.9717C75.4092 29.9717 76.4199 30.2588 77.123 30.833C77.8262 31.4072 78.1777 32.2803 78.1777 33.4521V40H76.3057L75.7871 38.6641H75.7168C75.4355 39.0156 75.1484 39.3027 74.8555 39.5254C74.5625 39.748 74.2256 39.9121 73.8447 40.0176C73.4639 40.123 73.001 40.1758 72.4561 40.1758C71.876 40.1758 71.3545 40.0645 70.8916 39.8418C70.4346 39.6191 70.0742 39.2793 69.8105 38.8223C69.5469 38.3594 69.415 37.7734 69.415 37.0645C69.415 36.0215 69.7812 35.2539 70.5137 34.7617C71.2461 34.2637 72.3447 33.9883 73.8096 33.9355L75.5146 33.8828V33.4521C75.5146 32.9365 75.3799 32.5586 75.1104 32.3184C74.8408 32.0781 74.4658 31.958 73.9854 31.958C73.5107 31.958 73.0449 32.0254 72.5879 32.1602C72.1309 32.2949 71.6738 32.4648 71.2168 32.6699L70.3291 30.8594C70.8506 30.584 71.4336 30.3672 72.0781 30.209C72.7285 30.0508 73.3994 29.9717 74.0908 29.9717ZM75.5146 35.4473L74.4775 35.4824C73.6104 35.5059 73.0068 35.6611 72.667 35.9482C72.333 36.2354 72.166 36.6133 72.166 37.082C72.166 37.4922 72.2861 37.7852 72.5264 37.9609C72.7666 38.1309 73.0801 38.2158 73.4668 38.2158C74.041 38.2158 74.5244 38.0459 74.917 37.7061C75.3154 37.3662 75.5146 36.8828 75.5146 36.2559V35.4473ZM87.8018 37.082C87.8018 37.75 87.6436 38.3154 87.3271 38.7783C87.0166 39.2354 86.5508 39.584 85.9297 39.8242C85.3086 40.0586 84.5352 40.1758 83.6094 40.1758C82.9238 40.1758 82.335 40.1318 81.8428 40.0439C81.3564 39.9561 80.8643 39.8096 80.3662 39.6045V37.3896C80.8994 37.6299 81.4707 37.8291 82.0801 37.9873C82.6953 38.1396 83.2344 38.2158 83.6973 38.2158C84.2188 38.2158 84.5908 38.1396 84.8135 37.9873C85.042 37.8291 85.1562 37.624 85.1562 37.3721C85.1562 37.208 85.1094 37.0615 85.0156 36.9326C84.9277 36.7979 84.7344 36.6484 84.4355 36.4844C84.1367 36.3145 83.668 36.0947 83.0293 35.8252C82.4141 35.5674 81.9072 35.3066 81.5088 35.043C81.1162 34.7793 80.8232 34.4688 80.6299 34.1113C80.4424 33.748 80.3486 33.2881 80.3486 32.7314C80.3486 31.8232 80.7002 31.1406 81.4033 30.6836C82.1123 30.2207 83.0586 29.9893 84.2422 29.9893C84.8516 29.9893 85.4316 30.0508 85.9824 30.1738C86.5391 30.2969 87.1104 30.4932 87.6963 30.7627L86.8877 32.6963C86.4014 32.4854 85.9414 32.3125 85.5078 32.1777C85.0801 32.043 84.6436 31.9756 84.1982 31.9756C83.8057 31.9756 83.5098 32.0283 83.3105 32.1338C83.1113 32.2393 83.0117 32.4004 83.0117 32.6172C83.0117 32.7754 83.0615 32.916 83.1611 33.0391C83.2666 33.1621 83.4658 33.2998 83.7588 33.4521C84.0576 33.5986 84.4941 33.7891 85.0684 34.0234C85.625 34.252 86.1084 34.4922 86.5186 34.7441C86.9287 34.9902 87.2451 35.2979 87.4678 35.667C87.6904 36.0303 87.8018 36.502 87.8018 37.082ZM92.5742 26.3242V32.4414C92.5742 32.8105 92.5596 33.1797 92.5303 33.5488C92.501 33.918 92.4688 34.2871 92.4336 34.6562H92.4688C92.6504 34.3984 92.835 34.1436 93.0225 33.8916C93.2158 33.6396 93.4209 33.3965 93.6377 33.1621L96.3887 30.1738H99.4121L95.5098 34.4365L99.6494 40H96.5557L93.7256 36.0186L92.5742 36.9414V40H89.8936V26.3242H92.5742Z" fill="#2D353C"/>
<path d="M23.1025 103H20.9834V94.7695H18.2695V93.0059H25.8164V94.7695H23.1025V103ZM29.2754 95.3574V103H27.1904V95.3574H29.2754ZM28.2363 92.3633C28.5462 92.3633 28.8128 92.4362 29.0361 92.582C29.2594 92.7233 29.3711 92.9899 29.3711 93.3818C29.3711 93.7692 29.2594 94.0381 29.0361 94.1885C28.8128 94.3343 28.5462 94.4072 28.2363 94.4072C27.9219 94.4072 27.653 94.3343 27.4297 94.1885C27.2109 94.0381 27.1016 93.7692 27.1016 93.3818C27.1016 92.9899 27.2109 92.7233 27.4297 92.582C27.653 92.4362 27.9219 92.3633 28.2363 92.3633ZM34.6895 101.476C34.9173 101.476 35.1383 101.453 35.3525 101.407C35.5713 101.362 35.7878 101.305 36.002 101.236V102.788C35.7786 102.888 35.5007 102.97 35.168 103.034C34.8398 103.103 34.4798 103.137 34.0879 103.137C33.6322 103.137 33.222 103.064 32.8574 102.918C32.4974 102.768 32.2126 102.51 32.0029 102.146C31.7979 101.776 31.6953 101.264 31.6953 100.607V96.9229H30.6973V96.041L31.8457 95.3438L32.4473 93.7305H33.7803V95.3574H35.9199V96.9229H33.7803V100.607C33.7803 100.899 33.8623 101.118 34.0264 101.264C34.195 101.405 34.416 101.476 34.6895 101.476ZM39.6387 103H37.5537V92.3633H39.6387V103ZM44.9844 95.2139C45.6908 95.2139 46.2992 95.3506 46.8096 95.624C47.32 95.8929 47.7142 96.2848 47.9922 96.7998C48.2702 97.3148 48.4092 97.9437 48.4092 98.6865V99.6982H43.4805C43.5033 100.286 43.6787 100.749 44.0068 101.086C44.3395 101.419 44.7998 101.585 45.3877 101.585C45.8753 101.585 46.3219 101.535 46.7275 101.435C47.1331 101.334 47.5501 101.184 47.9785 100.983V102.597C47.6003 102.784 47.2038 102.92 46.7891 103.007C46.3789 103.093 45.8799 103.137 45.292 103.137C44.5264 103.137 43.8473 102.995 43.2549 102.713C42.667 102.43 42.2044 102 41.8672 101.421C41.5345 100.842 41.3682 100.113 41.3682 99.2334C41.3682 98.3402 41.5186 97.5973 41.8193 97.0049C42.1247 96.4079 42.5485 95.9613 43.0908 95.665C43.6331 95.3643 44.2643 95.2139 44.9844 95.2139ZM44.998 96.6973C44.5924 96.6973 44.2552 96.8271 43.9863 97.0869C43.722 97.3467 43.5693 97.7546 43.5283 98.3105H46.4541C46.4495 98.0007 46.3926 97.7249 46.2832 97.4834C46.1784 97.2419 46.0189 97.0505 45.8047 96.9092C45.5951 96.7679 45.3262 96.6973 44.998 96.6973Z" fill="#2D353C"/>
<rect x="18.5" y="115.5" width="587" height="40" rx="4.5" fill="white" stroke="#DCE1E5"/>
<path d="M22.0088 191H19.8896V182.77H17.1758V181.006H24.7227V182.77H22.0088V191ZM25.0029 183.357H27.2861L28.7285 187.657C28.7741 187.794 28.8128 187.933 28.8447 188.074C28.8766 188.215 28.904 188.361 28.9268 188.512C28.9495 188.662 28.9678 188.819 28.9814 188.983H29.0225C29.0498 188.737 29.0863 188.507 29.1318 188.293C29.182 188.079 29.2435 187.867 29.3164 187.657L30.7314 183.357H32.9668L29.7334 191.978C29.5374 192.506 29.2822 192.946 28.9678 193.297C28.6533 193.652 28.291 193.919 27.8809 194.097C27.4753 194.274 27.0286 194.363 26.541 194.363C26.304 194.363 26.099 194.35 25.9258 194.322C25.7526 194.299 25.6045 194.274 25.4814 194.247V192.593C25.5771 192.616 25.6979 192.636 25.8438 192.654C25.9896 192.673 26.1423 192.682 26.3018 192.682C26.5934 192.682 26.8441 192.62 27.0537 192.497C27.2633 192.374 27.4388 192.208 27.5801 191.998C27.7214 191.793 27.833 191.567 27.915 191.321L28.0381 190.945L25.0029 183.357ZM38.3193 183.214C39.1807 183.214 39.8757 183.549 40.4043 184.219C40.9375 184.889 41.2041 185.871 41.2041 187.165C41.2041 188.031 41.0788 188.76 40.8281 189.353C40.5775 189.94 40.2311 190.385 39.7891 190.686C39.347 190.986 38.8389 191.137 38.2646 191.137C37.8955 191.137 37.5788 191.091 37.3145 191C37.0501 190.904 36.8245 190.784 36.6377 190.638C36.4508 190.487 36.2891 190.328 36.1523 190.159H36.043C36.0794 190.341 36.1068 190.528 36.125 190.72C36.1432 190.911 36.1523 191.098 36.1523 191.28V194.363H34.0674V183.357H35.7627L36.0566 184.349H36.1523C36.2891 184.144 36.4554 183.954 36.6514 183.781C36.8473 183.608 37.082 183.471 37.3555 183.371C37.6335 183.266 37.9548 183.214 38.3193 183.214ZM37.6494 184.882C37.2848 184.882 36.9954 184.957 36.7812 185.107C36.5671 185.258 36.4098 185.483 36.3096 185.784C36.2139 186.085 36.1615 186.465 36.1523 186.926V187.151C36.1523 187.644 36.1979 188.061 36.2891 188.402C36.3848 188.744 36.542 189.004 36.7607 189.182C36.984 189.359 37.2894 189.448 37.6768 189.448C37.9958 189.448 38.2578 189.359 38.4629 189.182C38.668 189.004 38.8206 188.744 38.9209 188.402C39.0257 188.056 39.0781 187.634 39.0781 187.138C39.0781 186.39 38.9619 185.827 38.7295 185.449C38.4971 185.071 38.137 184.882 37.6494 184.882ZM46.0781 183.214C46.7845 183.214 47.3929 183.351 47.9033 183.624C48.4137 183.893 48.8079 184.285 49.0859 184.8C49.3639 185.315 49.5029 185.944 49.5029 186.687V187.698H44.5742C44.597 188.286 44.7725 188.749 45.1006 189.086C45.4333 189.419 45.8936 189.585 46.4814 189.585C46.9691 189.585 47.4157 189.535 47.8213 189.435C48.2269 189.334 48.6439 189.184 49.0723 188.983V190.597C48.694 190.784 48.2975 190.92 47.8828 191.007C47.4727 191.093 46.9736 191.137 46.3857 191.137C45.6201 191.137 44.9411 190.995 44.3486 190.713C43.7607 190.43 43.2982 190 42.9609 189.421C42.6283 188.842 42.4619 188.113 42.4619 187.233C42.4619 186.34 42.6123 185.597 42.9131 185.005C43.2184 184.408 43.6423 183.961 44.1846 183.665C44.7269 183.364 45.3581 183.214 46.0781 183.214ZM46.0918 184.697C45.6862 184.697 45.349 184.827 45.0801 185.087C44.8158 185.347 44.6631 185.755 44.6221 186.311H47.5479C47.5433 186.001 47.4863 185.725 47.377 185.483C47.2721 185.242 47.1126 185.05 46.8984 184.909C46.6888 184.768 46.4199 184.697 46.0918 184.697Z" fill="#2D353C"/>
<path d="M68.71 219H67.4648V208.292H73.4268V209.391H68.71V213.316H73.1411V214.408H68.71V219ZM78.1216 210.826C78.8052 210.826 79.3911 210.978 79.8794 211.28C80.3677 211.583 80.7412 212.008 81 212.555C81.2588 213.097 81.3882 213.731 81.3882 214.459V215.213H75.8438C75.8584 216.156 76.0928 216.874 76.5469 217.367C77.001 217.86 77.6406 218.106 78.4658 218.106C78.9736 218.106 79.4229 218.06 79.8135 217.967C80.2041 217.875 80.6094 217.738 81.0293 217.557V218.626C80.624 218.807 80.2212 218.939 79.8208 219.022C79.4253 219.105 78.9565 219.146 78.4146 219.146C77.6431 219.146 76.9692 218.99 76.3931 218.678C75.8218 218.36 75.3774 217.896 75.0601 217.286C74.7427 216.676 74.584 215.929 74.584 215.045C74.584 214.181 74.728 213.434 75.0161 212.804C75.3091 212.169 75.7192 211.681 76.2466 211.339C76.7788 210.997 77.4038 210.826 78.1216 210.826ZM78.1069 211.822C77.4575 211.822 76.9399 212.035 76.5542 212.459C76.1685 212.884 75.939 213.478 75.8657 214.239H80.1138C80.1089 213.761 80.0332 213.341 79.8867 212.979C79.7451 212.613 79.5278 212.33 79.2349 212.13C78.9419 211.925 78.5659 211.822 78.1069 211.822ZM86.4565 210.841C87.4136 210.841 88.124 211.056 88.5879 211.485C89.0518 211.915 89.2837 212.601 89.2837 213.543V219H88.3975L88.1631 217.813H88.1045C87.8799 218.106 87.6455 218.353 87.4014 218.553C87.1572 218.749 86.874 218.897 86.5518 219C86.2344 219.098 85.8438 219.146 85.3799 219.146C84.8916 219.146 84.457 219.061 84.0762 218.89C83.7002 218.719 83.4023 218.46 83.1826 218.114C82.9678 217.767 82.8604 217.328 82.8604 216.795C82.8604 215.995 83.1777 215.379 83.8125 214.95C84.4473 214.52 85.4141 214.286 86.7129 214.247L88.0972 214.188V213.697C88.0972 213.004 87.9482 212.518 87.6504 212.24C87.3525 211.961 86.9326 211.822 86.3906 211.822C85.9707 211.822 85.5703 211.883 85.1895 212.005C84.8086 212.127 84.4473 212.271 84.1055 212.438L83.7319 211.515C84.0933 211.329 84.5083 211.17 84.9771 211.039C85.4458 210.907 85.939 210.841 86.4565 210.841ZM88.0825 215.045L86.8594 215.096C85.8584 215.135 85.1528 215.299 84.7427 215.587C84.3325 215.875 84.1274 216.283 84.1274 216.81C84.1274 217.269 84.2666 217.608 84.5449 217.828C84.8232 218.048 85.1919 218.158 85.6509 218.158C86.3638 218.158 86.9473 217.96 87.4014 217.564C87.8555 217.169 88.0825 216.576 88.0825 215.785V215.045ZM94.3813 218.15C94.5815 218.15 94.7866 218.133 94.9966 218.099C95.2065 218.065 95.3774 218.023 95.5093 217.975V218.919C95.3677 218.983 95.1699 219.037 94.916 219.081C94.667 219.125 94.4229 219.146 94.1836 219.146C93.7588 219.146 93.373 219.073 93.0264 218.927C92.6797 218.775 92.4014 218.521 92.1914 218.165C91.9863 217.809 91.8838 217.315 91.8838 216.686V211.925H90.7412V211.332L91.8911 210.855L92.3745 209.112H93.1069V210.973H95.458V211.925H93.1069V216.649C93.1069 217.152 93.2217 217.528 93.4512 217.777C93.6855 218.026 93.9956 218.15 94.3813 218.15ZM103.764 210.973V219H102.768L102.592 217.872H102.526C102.36 218.15 102.145 218.385 101.881 218.575C101.618 218.766 101.32 218.907 100.988 219C100.661 219.098 100.312 219.146 99.9404 219.146C99.3057 219.146 98.7734 219.044 98.3438 218.839C97.9141 218.634 97.5894 218.316 97.3696 217.887C97.1548 217.457 97.0474 216.905 97.0474 216.231V210.973H98.2778V216.144C98.2778 216.812 98.4292 217.313 98.7319 217.645C99.0347 217.972 99.4961 218.136 100.116 218.136C100.712 218.136 101.186 218.023 101.537 217.799C101.894 217.574 102.15 217.245 102.306 216.81C102.462 216.371 102.541 215.833 102.541 215.199V210.973H103.764ZM109.982 210.826C110.143 210.826 110.312 210.836 110.487 210.855C110.663 210.87 110.819 210.892 110.956 210.921L110.802 212.049C110.67 212.015 110.524 211.988 110.363 211.969C110.202 211.949 110.05 211.939 109.909 211.939C109.586 211.939 109.281 212.005 108.993 212.137C108.71 212.264 108.461 212.45 108.246 212.694C108.031 212.933 107.863 213.224 107.741 213.565C107.619 213.902 107.558 214.278 107.558 214.693V219H106.334V210.973H107.345L107.477 212.452H107.528C107.694 212.154 107.895 211.883 108.129 211.639C108.363 211.39 108.634 211.192 108.942 211.046C109.254 210.899 109.601 210.826 109.982 210.826ZM115.563 210.826C116.247 210.826 116.833 210.978 117.321 211.28C117.809 211.583 118.183 212.008 118.441 212.555C118.7 213.097 118.83 213.731 118.83 214.459V215.213H113.285C113.3 216.156 113.534 216.874 113.988 217.367C114.442 217.86 115.082 218.106 115.907 218.106C116.415 218.106 116.864 218.06 117.255 217.967C117.646 217.875 118.051 217.738 118.471 217.557V218.626C118.065 218.807 117.663 218.939 117.262 219.022C116.867 219.105 116.398 219.146 115.856 219.146C115.084 219.146 114.411 218.99 113.834 218.678C113.263 218.36 112.819 217.896 112.501 217.286C112.184 216.676 112.025 215.929 112.025 215.045C112.025 214.181 112.169 213.434 112.458 212.804C112.75 212.169 113.161 211.681 113.688 211.339C114.22 210.997 114.845 210.826 115.563 210.826ZM115.548 211.822C114.899 211.822 114.381 212.035 113.996 212.459C113.61 212.884 113.38 213.478 113.307 214.239H117.555C117.55 213.761 117.475 213.341 117.328 212.979C117.187 212.613 116.969 212.33 116.676 212.13C116.383 211.925 116.007 211.822 115.548 211.822Z" fill="#383E40"/>
<path d="M67.4648 235.292H70.4971C71.835 235.292 72.8408 235.492 73.5146 235.893C74.1885 236.293 74.5254 236.974 74.5254 237.936C74.5254 238.351 74.4448 238.725 74.2837 239.057C74.1274 239.384 73.8979 239.655 73.5952 239.87C73.2925 240.084 72.9189 240.233 72.4746 240.316V240.39C72.9434 240.463 73.3584 240.597 73.7197 240.792C74.0811 240.988 74.3643 241.261 74.5693 241.613C74.7744 241.964 74.877 242.411 74.877 242.953C74.877 243.612 74.7231 244.169 74.4155 244.623C74.1128 245.077 73.6831 245.421 73.1265 245.656C72.5698 245.885 71.9106 246 71.1489 246H67.4648V235.292ZM68.71 239.884H70.7607C71.6934 239.884 72.3379 239.73 72.6943 239.423C73.0557 239.115 73.2363 238.666 73.2363 238.075C73.2363 237.465 73.0215 237.025 72.5918 236.757C72.167 236.488 71.4883 236.354 70.5557 236.354H68.71V239.884ZM68.71 240.932V244.938H70.9365C71.8887 244.938 72.5625 244.752 72.958 244.381C73.3535 244.005 73.5513 243.5 73.5513 242.865C73.5513 242.46 73.4609 242.113 73.2803 241.825C73.1045 241.537 72.8164 241.317 72.416 241.166C72.0205 241.01 71.4907 240.932 70.8267 240.932H68.71ZM83.6074 237.973V246H82.6113L82.4355 244.872H82.3696C82.2036 245.15 81.9888 245.385 81.7251 245.575C81.4614 245.766 81.1636 245.907 80.8315 246C80.5044 246.098 80.1553 246.146 79.7842 246.146C79.1494 246.146 78.6172 246.044 78.1875 245.839C77.7578 245.634 77.4331 245.316 77.2134 244.887C76.9985 244.457 76.8911 243.905 76.8911 243.231V237.973H78.1216V243.144C78.1216 243.812 78.2729 244.313 78.5757 244.645C78.8784 244.972 79.3398 245.136 79.96 245.136C80.5557 245.136 81.0293 245.023 81.3809 244.799C81.7373 244.574 81.9937 244.245 82.1499 243.81C82.3062 243.371 82.3843 242.833 82.3843 242.199V237.973H83.6074ZM88.4194 249.604C87.3647 249.604 86.5518 249.406 85.9805 249.01C85.4092 248.62 85.1235 248.07 85.1235 247.362C85.1235 246.859 85.2822 246.43 85.5996 246.073C85.9219 245.717 86.3662 245.48 86.9326 245.363C86.7227 245.265 86.542 245.119 86.3906 244.923C86.2441 244.728 86.1709 244.503 86.1709 244.25C86.1709 243.957 86.2515 243.7 86.4126 243.48C86.5786 243.256 86.8301 243.041 87.167 242.836C86.7471 242.665 86.4053 242.377 86.1416 241.972C85.8828 241.562 85.7534 241.085 85.7534 240.543C85.7534 239.967 85.873 239.477 86.1123 239.071C86.3516 238.661 86.6982 238.349 87.1523 238.134C87.6064 237.919 88.1558 237.812 88.8003 237.812C88.9419 237.812 89.0835 237.819 89.2251 237.833C89.3716 237.843 89.5107 237.86 89.6426 237.885C89.7744 237.904 89.8892 237.929 89.9868 237.958H92.7407V238.742L91.2612 238.925C91.4077 239.115 91.5298 239.345 91.6274 239.613C91.7251 239.882 91.7739 240.18 91.7739 240.507C91.7739 241.308 91.5029 241.945 90.9609 242.418C90.4189 242.887 89.6743 243.122 88.7271 243.122C88.5024 243.122 88.2729 243.102 88.0386 243.063C87.7993 243.195 87.6162 243.341 87.4893 243.502C87.3672 243.664 87.3062 243.849 87.3062 244.059C87.3062 244.215 87.3525 244.34 87.4453 244.433C87.543 244.525 87.6821 244.594 87.8628 244.638C88.0435 244.677 88.2607 244.696 88.5146 244.696H89.9282C90.8022 244.696 91.4712 244.879 91.9351 245.246C92.4038 245.612 92.6382 246.146 92.6382 246.85C92.6382 247.738 92.2769 248.419 91.5542 248.893C90.8315 249.367 89.7866 249.604 88.4194 249.604ZM88.4561 248.651C89.1201 248.651 89.6694 248.583 90.104 248.446C90.5435 248.314 90.8706 248.122 91.0854 247.868C91.3052 247.619 91.415 247.321 91.415 246.974C91.415 246.652 91.3418 246.408 91.1953 246.242C91.0488 246.081 90.834 245.973 90.5508 245.919C90.2676 245.861 89.9209 245.832 89.5107 245.832H88.1191C87.7578 245.832 87.4429 245.888 87.1743 246C86.9058 246.112 86.6982 246.278 86.5518 246.498C86.4102 246.718 86.3394 246.991 86.3394 247.318C86.3394 247.753 86.5225 248.083 86.8887 248.307C87.2549 248.537 87.7773 248.651 88.4561 248.651ZM88.771 242.235C89.3521 242.235 89.7891 242.089 90.082 241.796C90.375 241.503 90.5215 241.076 90.5215 240.514C90.5215 239.914 90.3726 239.464 90.0747 239.167C89.7769 238.864 89.3374 238.712 88.7563 238.712C88.1997 238.712 87.77 238.869 87.4673 239.181C87.1694 239.489 87.0205 239.94 87.0205 240.536C87.0205 241.083 87.1719 241.503 87.4746 241.796C87.7773 242.089 88.2095 242.235 88.771 242.235Z" fill="#383E40"/>
<circle cx="47.5" cy="240.5" r="11.5" stroke="#DCE1E5"/>
<circle cx="47.5" cy="212.5" r="8.5" stroke="#348FE2" stroke-width="6"/>
<path d="M21.5566 277.006C22.8464 277.006 23.7874 277.284 24.3799 277.84C24.9723 278.391 25.2686 279.152 25.2686 280.123C25.2686 280.561 25.2025 280.98 25.0703 281.381C24.9382 281.777 24.7217 282.131 24.4209 282.44C24.1247 282.75 23.7282 282.996 23.2314 283.179C22.7347 283.356 22.1217 283.445 21.3926 283.445H20.4834V287H18.3643V277.006H21.5566ZM21.4473 278.742H20.4834V281.709H21.1807C21.5771 281.709 21.9212 281.657 22.2129 281.552C22.5046 281.447 22.7301 281.283 22.8896 281.06C23.0492 280.836 23.1289 280.549 23.1289 280.198C23.1289 279.706 22.9922 279.341 22.7188 279.104C22.4453 278.863 22.0215 278.742 21.4473 278.742ZM31.2568 279.214C31.3617 279.214 31.4824 279.221 31.6191 279.234C31.7604 279.243 31.8743 279.257 31.9609 279.275L31.8037 281.23C31.7354 281.208 31.6374 281.192 31.5098 281.183C31.3867 281.169 31.2796 281.162 31.1885 281.162C30.9196 281.162 30.6576 281.196 30.4023 281.265C30.1517 281.333 29.9261 281.445 29.7256 281.6C29.5251 281.75 29.3656 281.951 29.2471 282.201C29.1331 282.447 29.0762 282.75 29.0762 283.11V287H26.9912V279.357H28.5703L28.8779 280.643H28.9805C29.1309 280.383 29.3177 280.146 29.541 279.932C29.7689 279.713 30.0264 279.54 30.3135 279.412C30.6051 279.28 30.9196 279.214 31.2568 279.214ZM35.4336 279.357V287H33.3486V279.357H35.4336ZM34.3945 276.363C34.7044 276.363 34.971 276.436 35.1943 276.582C35.4176 276.723 35.5293 276.99 35.5293 277.382C35.5293 277.769 35.4176 278.038 35.1943 278.188C34.971 278.334 34.7044 278.407 34.3945 278.407C34.0801 278.407 33.8112 278.334 33.5879 278.188C33.3691 278.038 33.2598 277.769 33.2598 277.382C33.2598 276.99 33.3691 276.723 33.5879 276.582C33.8112 276.436 34.0801 276.363 34.3945 276.363ZM44.5732 283.165C44.5732 283.803 44.4867 284.368 44.3135 284.86C44.1449 285.353 43.8965 285.77 43.5684 286.111C43.2448 286.449 42.8529 286.704 42.3926 286.877C41.9368 287.05 41.4219 287.137 40.8477 287.137C40.3099 287.137 39.8154 287.05 39.3643 286.877C38.9176 286.704 38.528 286.449 38.1953 286.111C37.8672 285.77 37.612 285.353 37.4297 284.86C37.252 284.368 37.1631 283.803 37.1631 283.165C37.1631 282.317 37.3135 281.6 37.6143 281.012C37.915 280.424 38.3434 279.977 38.8994 279.672C39.4554 279.367 40.1185 279.214 40.8887 279.214C41.6042 279.214 42.2376 279.367 42.7891 279.672C43.3451 279.977 43.7803 280.424 44.0947 281.012C44.4137 281.6 44.5732 282.317 44.5732 283.165ZM39.2891 283.165C39.2891 283.666 39.3438 284.088 39.4531 284.43C39.5625 284.771 39.7334 285.029 39.9658 285.202C40.1982 285.375 40.5013 285.462 40.875 285.462C41.2441 285.462 41.5426 285.375 41.7705 285.202C42.0029 285.029 42.1715 284.771 42.2764 284.43C42.3857 284.088 42.4404 283.666 42.4404 283.165C42.4404 282.659 42.3857 282.24 42.2764 281.907C42.1715 281.57 42.0029 281.317 41.7705 281.148C41.5381 280.98 41.235 280.896 40.8613 280.896C40.3099 280.896 39.9089 281.085 39.6582 281.463C39.4121 281.841 39.2891 282.409 39.2891 283.165ZM50.5615 279.214C50.6663 279.214 50.7871 279.221 50.9238 279.234C51.0651 279.243 51.179 279.257 51.2656 279.275L51.1084 281.23C51.04 281.208 50.9421 281.192 50.8145 281.183C50.6914 281.169 50.5843 281.162 50.4932 281.162C50.2243 281.162 49.9622 281.196 49.707 281.265C49.4564 281.333 49.2308 281.445 49.0303 281.6C48.8298 281.75 48.6702 281.951 48.5518 282.201C48.4378 282.447 48.3809 282.75 48.3809 283.11V287H46.2959V279.357H47.875L48.1826 280.643H48.2852C48.4355 280.383 48.6224 280.146 48.8457 279.932C49.0736 279.713 49.3311 279.54 49.6182 279.412C49.9098 279.28 50.2243 279.214 50.5615 279.214ZM54.7383 279.357V287H52.6533V279.357H54.7383ZM53.6992 276.363C54.0091 276.363 54.2757 276.436 54.499 276.582C54.7223 276.723 54.834 276.99 54.834 277.382C54.834 277.769 54.7223 278.038 54.499 278.188C54.2757 278.334 54.0091 278.407 53.6992 278.407C53.3848 278.407 53.1159 278.334 52.8926 278.188C52.6738 278.038 52.5645 277.769 52.5645 277.382C52.5645 276.99 52.6738 276.723 52.8926 276.582C53.1159 276.436 53.3848 276.363 53.6992 276.363ZM60.1523 285.476C60.3802 285.476 60.6012 285.453 60.8154 285.407C61.0342 285.362 61.2507 285.305 61.4648 285.236V286.788C61.2415 286.888 60.9635 286.97 60.6309 287.034C60.3027 287.103 59.9427 287.137 59.5508 287.137C59.0951 287.137 58.6849 287.064 58.3203 286.918C57.9603 286.768 57.6755 286.51 57.4658 286.146C57.2607 285.776 57.1582 285.264 57.1582 284.607V280.923H56.1602V280.041L57.3086 279.344L57.9102 277.73H59.2432V279.357H61.3828V280.923H59.2432V284.607C59.2432 284.899 59.3252 285.118 59.4893 285.264C59.6579 285.405 59.8789 285.476 60.1523 285.476ZM61.9229 279.357H64.2061L65.6484 283.657C65.694 283.794 65.7327 283.933 65.7646 284.074C65.7965 284.215 65.8239 284.361 65.8467 284.512C65.8695 284.662 65.8877 284.819 65.9014 284.983H65.9424C65.9697 284.737 66.0062 284.507 66.0518 284.293C66.1019 284.079 66.1634 283.867 66.2363 283.657L67.6514 279.357H69.8867L66.6533 287.978C66.4574 288.506 66.2021 288.946 65.8877 289.297C65.5732 289.652 65.2109 289.919 64.8008 290.097C64.3952 290.274 63.9486 290.363 63.4609 290.363C63.224 290.363 63.0189 290.35 62.8457 290.322C62.6725 290.299 62.5244 290.274 62.4014 290.247V288.593C62.4971 288.616 62.6178 288.636 62.7637 288.654C62.9095 288.673 63.0622 288.682 63.2217 288.682C63.5133 288.682 63.764 288.62 63.9736 288.497C64.1833 288.374 64.3587 288.208 64.5 287.998C64.6413 287.793 64.7529 287.567 64.835 287.321L64.958 286.945L61.9229 279.357Z" fill="#2D353C"/>
<rect x="17.5" y="299.5" width="587" height="40" rx="4.5" fill="white" stroke="#DCE1E5"/>
<path d="M24.4062 373.225C24.4062 373.817 24.2627 374.332 23.9756 374.77C23.6885 375.207 23.2692 375.544 22.7178 375.781C22.1709 376.018 21.5055 376.137 20.7217 376.137C20.3753 376.137 20.0358 376.114 19.7031 376.068C19.375 376.023 19.0583 375.957 18.7529 375.87C18.4521 375.779 18.165 375.667 17.8916 375.535V373.566C18.3656 373.776 18.8577 373.965 19.3682 374.134C19.8786 374.302 20.3844 374.387 20.8857 374.387C21.2321 374.387 21.5101 374.341 21.7197 374.25C21.9339 374.159 22.0889 374.034 22.1846 373.874C22.2803 373.715 22.3281 373.532 22.3281 373.327C22.3281 373.076 22.2438 372.862 22.0752 372.685C21.9066 372.507 21.6742 372.34 21.3779 372.186C21.0863 372.031 20.7559 371.864 20.3867 371.687C20.1543 371.577 19.9014 371.445 19.6279 371.29C19.3545 371.131 19.0947 370.937 18.8486 370.709C18.6025 370.481 18.3997 370.205 18.2402 369.882C18.0853 369.554 18.0078 369.162 18.0078 368.706C18.0078 368.109 18.1445 367.599 18.418 367.175C18.6914 366.751 19.0811 366.427 19.5869 366.204C20.0973 365.976 20.6989 365.862 21.3916 365.862C21.9111 365.862 22.4056 365.924 22.875 366.047C23.349 366.165 23.8434 366.339 24.3584 366.566L23.6748 368.214C23.2145 368.027 22.8021 367.883 22.4375 367.783C22.0729 367.678 21.7015 367.626 21.3232 367.626C21.0589 367.626 20.8333 367.669 20.6465 367.756C20.4596 367.838 20.3184 367.956 20.2227 368.111C20.127 368.262 20.0791 368.437 20.0791 368.638C20.0791 368.875 20.1475 369.075 20.2842 369.239C20.4255 369.399 20.6351 369.554 20.9131 369.704C21.1956 369.854 21.5465 370.03 21.9658 370.23C22.4762 370.472 22.9115 370.725 23.2715 370.989C23.6361 371.249 23.9163 371.557 24.1123 371.912C24.3083 372.263 24.4062 372.701 24.4062 373.225ZM29.2734 374.476C29.5013 374.476 29.7223 374.453 29.9365 374.407C30.1553 374.362 30.3717 374.305 30.5859 374.236V375.788C30.3626 375.888 30.0846 375.97 29.752 376.034C29.4238 376.103 29.0638 376.137 28.6719 376.137C28.2161 376.137 27.806 376.064 27.4414 375.918C27.0814 375.768 26.7965 375.51 26.5869 375.146C26.3818 374.776 26.2793 374.264 26.2793 373.607V369.923H25.2812V369.041L26.4297 368.344L27.0312 366.73H28.3643V368.357H30.5039V369.923H28.3643V373.607C28.3643 373.899 28.4463 374.118 28.6104 374.264C28.779 374.405 29 374.476 29.2734 374.476ZM35.2686 368.2C36.2939 368.2 37.0801 368.424 37.627 368.87C38.1738 369.317 38.4473 369.996 38.4473 370.907V376H36.9912L36.5879 374.961H36.5332C36.3145 375.234 36.0911 375.458 35.8633 375.631C35.6354 375.804 35.3734 375.932 35.0771 376.014C34.7809 376.096 34.4209 376.137 33.9971 376.137C33.5459 376.137 33.1403 376.05 32.7803 375.877C32.4248 375.704 32.1445 375.439 31.9395 375.084C31.7344 374.724 31.6318 374.268 31.6318 373.717C31.6318 372.906 31.9167 372.309 32.4863 371.926C33.056 371.538 33.9105 371.324 35.0498 371.283L36.376 371.242V370.907C36.376 370.506 36.2712 370.212 36.0615 370.025C35.8519 369.839 35.5602 369.745 35.1865 369.745C34.8174 369.745 34.4551 369.798 34.0996 369.902C33.7441 370.007 33.3887 370.139 33.0332 370.299L32.3428 368.891C32.7484 368.676 33.2018 368.508 33.7031 368.385C34.209 368.262 34.7308 368.2 35.2686 368.2ZM36.376 372.459L35.5693 372.486C34.8949 372.505 34.4255 372.625 34.1611 372.849C33.9014 373.072 33.7715 373.366 33.7715 373.73C33.7715 374.049 33.8649 374.277 34.0518 374.414C34.2386 374.546 34.4824 374.612 34.7832 374.612C35.2298 374.612 35.6058 374.48 35.9111 374.216C36.221 373.951 36.376 373.576 36.376 373.088V372.459ZM43.8203 374.476C44.0482 374.476 44.2692 374.453 44.4834 374.407C44.7021 374.362 44.9186 374.305 45.1328 374.236V375.788C44.9095 375.888 44.6315 375.97 44.2988 376.034C43.9707 376.103 43.6107 376.137 43.2188 376.137C42.763 376.137 42.3529 376.064 41.9883 375.918C41.6283 375.768 41.3434 375.51 41.1338 375.146C40.9287 374.776 40.8262 374.264 40.8262 373.607V369.923H39.8281V369.041L40.9766 368.344L41.5781 366.73H42.9111V368.357H45.0508V369.923H42.9111V373.607C42.9111 373.899 42.9932 374.118 43.1572 374.264C43.3258 374.405 43.5469 374.476 43.8203 374.476ZM53.6982 368.357V376H52.0986L51.8184 375.022H51.709C51.5449 375.282 51.3398 375.494 51.0938 375.658C50.8477 375.822 50.5765 375.943 50.2803 376.021C49.984 376.098 49.6764 376.137 49.3574 376.137C48.8105 376.137 48.3343 376.041 47.9287 375.85C47.5231 375.654 47.2064 375.351 46.9785 374.94C46.7552 374.53 46.6436 373.997 46.6436 373.341V368.357H48.7285V372.821C48.7285 373.368 48.8265 373.781 49.0225 374.059C49.2184 374.337 49.5306 374.476 49.959 374.476C50.3828 374.476 50.7155 374.38 50.957 374.188C51.1986 373.993 51.3672 373.708 51.4629 373.334C51.5632 372.956 51.6133 372.495 51.6133 371.953V368.357H53.6982ZM61.2178 373.73C61.2178 374.25 61.0947 374.69 60.8486 375.05C60.6071 375.405 60.2448 375.676 59.7617 375.863C59.2786 376.046 58.6771 376.137 57.957 376.137C57.4238 376.137 56.9658 376.103 56.583 376.034C56.2048 375.966 55.8219 375.852 55.4346 375.692V373.97C55.8493 374.157 56.2936 374.312 56.7676 374.435C57.2461 374.553 57.6654 374.612 58.0254 374.612C58.431 374.612 58.7204 374.553 58.8936 374.435C59.0713 374.312 59.1602 374.152 59.1602 373.956C59.1602 373.828 59.1237 373.715 59.0508 373.614C58.9824 373.509 58.832 373.393 58.5996 373.266C58.3672 373.133 58.0026 372.963 57.5059 372.753C57.0273 372.552 56.6331 372.35 56.3232 372.145C56.0179 371.939 55.79 371.698 55.6396 371.42C55.4938 371.137 55.4209 370.78 55.4209 370.347C55.4209 369.64 55.6943 369.109 56.2412 368.754C56.7926 368.394 57.5286 368.214 58.4492 368.214C58.9232 368.214 59.3743 368.262 59.8027 368.357C60.2357 368.453 60.68 368.606 61.1357 368.815L60.5068 370.319C60.1286 370.155 59.7708 370.021 59.4336 369.916C59.1009 369.811 58.7614 369.759 58.415 369.759C58.1097 369.759 57.8796 369.8 57.7246 369.882C57.5697 369.964 57.4922 370.089 57.4922 370.258C57.4922 370.381 57.5309 370.49 57.6084 370.586C57.6904 370.682 57.8454 370.789 58.0732 370.907C58.3057 371.021 58.6452 371.169 59.0918 371.352C59.5247 371.529 59.9007 371.716 60.2197 371.912C60.5387 372.104 60.7848 372.343 60.958 372.63C61.1312 372.912 61.2178 373.279 61.2178 373.73Z" fill="#2D353C"/>
<rect x="17.5" y="387.5" width="587" height="41" rx="4.5" fill="white" stroke="#DCE1E5"/>
<path d="M26.459 459.907C26.459 461.033 26.2425 461.974 25.8096 462.73C25.3812 463.482 24.7591 464.05 23.9434 464.433C23.1276 464.811 22.1455 465 20.9971 465H18.167V455.006H21.3047C22.3529 455.006 23.262 455.193 24.0322 455.566C24.8024 455.936 25.3994 456.485 25.8232 457.214C26.2471 457.938 26.459 458.836 26.459 459.907ZM24.2578 459.962C24.2578 459.224 24.1484 458.618 23.9297 458.144C23.7155 457.665 23.3965 457.312 22.9727 457.084C22.5534 456.856 22.0339 456.742 21.4141 456.742H20.2861V463.25H21.1953C22.2298 463.25 22.9977 462.974 23.499 462.423C24.0049 461.871 24.2578 461.051 24.2578 459.962ZM31.4971 457.2C32.5225 457.2 33.3086 457.424 33.8555 457.87C34.4023 458.317 34.6758 458.996 34.6758 459.907V465H33.2197L32.8164 463.961H32.7617C32.543 464.234 32.3197 464.458 32.0918 464.631C31.8639 464.804 31.6019 464.932 31.3057 465.014C31.0094 465.096 30.6494 465.137 30.2256 465.137C29.7744 465.137 29.3688 465.05 29.0088 464.877C28.6533 464.704 28.373 464.439 28.168 464.084C27.9629 463.724 27.8604 463.268 27.8604 462.717C27.8604 461.906 28.1452 461.309 28.7148 460.926C29.2845 460.538 30.139 460.324 31.2783 460.283L32.6045 460.242V459.907C32.6045 459.506 32.4997 459.212 32.29 459.025C32.0804 458.839 31.7887 458.745 31.415 458.745C31.0459 458.745 30.6836 458.798 30.3281 458.902C29.9727 459.007 29.6172 459.139 29.2617 459.299L28.5713 457.891C28.9769 457.676 29.4303 457.508 29.9316 457.385C30.4375 457.262 30.9593 457.2 31.4971 457.2ZM32.6045 461.459L31.7979 461.486C31.1234 461.505 30.654 461.625 30.3896 461.849C30.1299 462.072 30 462.366 30 462.73C30 463.049 30.0934 463.277 30.2803 463.414C30.4671 463.546 30.7109 463.612 31.0117 463.612C31.4583 463.612 31.8343 463.48 32.1396 463.216C32.4495 462.951 32.6045 462.576 32.6045 462.088V461.459ZM40.0488 463.476C40.2767 463.476 40.4977 463.453 40.7119 463.407C40.9307 463.362 41.1471 463.305 41.3613 463.236V464.788C41.138 464.888 40.86 464.97 40.5273 465.034C40.1992 465.103 39.8392 465.137 39.4473 465.137C38.9915 465.137 38.5814 465.064 38.2168 464.918C37.8568 464.768 37.5719 464.51 37.3623 464.146C37.1572 463.776 37.0547 463.264 37.0547 462.607V458.923H36.0566V458.041L37.2051 457.344L37.8066 455.73H39.1396V457.357H41.2793V458.923H39.1396V462.607C39.1396 462.899 39.2217 463.118 39.3857 463.264C39.5544 463.405 39.7754 463.476 40.0488 463.476ZM46.0645 457.214C46.7708 457.214 47.3792 457.351 47.8896 457.624C48.4001 457.893 48.7943 458.285 49.0723 458.8C49.3503 459.315 49.4893 459.944 49.4893 460.687V461.698H44.5605C44.5833 462.286 44.7588 462.749 45.0869 463.086C45.4196 463.419 45.8799 463.585 46.4678 463.585C46.9554 463.585 47.402 463.535 47.8076 463.435C48.2132 463.334 48.6302 463.184 49.0586 462.983V464.597C48.6803 464.784 48.2839 464.92 47.8691 465.007C47.459 465.093 46.96 465.137 46.3721 465.137C45.6064 465.137 44.9274 464.995 44.335 464.713C43.7471 464.43 43.2845 464 42.9473 463.421C42.6146 462.842 42.4482 462.113 42.4482 461.233C42.4482 460.34 42.5986 459.597 42.8994 459.005C43.2048 458.408 43.6286 457.961 44.1709 457.665C44.7132 457.364 45.3444 457.214 46.0645 457.214ZM46.0781 458.697C45.6725 458.697 45.3353 458.827 45.0664 459.087C44.8021 459.347 44.6494 459.755 44.6084 460.311H47.5342C47.5296 460.001 47.4727 459.725 47.3633 459.483C47.2585 459.242 47.099 459.05 46.8848 458.909C46.6751 458.768 46.4062 458.697 46.0781 458.697Z" fill="#2D353C"/>
<rect x="17.5" y="475.5" width="587" height="42" rx="4.5" fill="white" stroke="#DCE1E5"/>
<path d="M27.2861 548.907C27.2861 550.033 27.0697 550.974 26.6367 551.73C26.2083 552.482 25.5863 553.05 24.7705 553.433C23.9548 553.811 22.9727 554 21.8242 554H18.9941V544.006H22.1318C23.18 544.006 24.0892 544.193 24.8594 544.566C25.6296 544.936 26.2266 545.485 26.6504 546.214C27.0742 546.938 27.2861 547.836 27.2861 548.907ZM25.085 548.962C25.085 548.224 24.9756 547.618 24.7568 547.144C24.5426 546.665 24.2236 546.312 23.7998 546.084C23.3805 545.856 22.861 545.742 22.2412 545.742H21.1133V552.25H22.0225C23.057 552.25 23.8249 551.974 24.3262 551.423C24.832 550.871 25.085 550.051 25.085 548.962ZM32.3447 546.214C33.0511 546.214 33.6595 546.351 34.1699 546.624C34.6803 546.893 35.0745 547.285 35.3525 547.8C35.6305 548.315 35.7695 548.944 35.7695 549.687V550.698H30.8408C30.8636 551.286 31.0391 551.749 31.3672 552.086C31.6999 552.419 32.1602 552.585 32.748 552.585C33.2357 552.585 33.6823 552.535 34.0879 552.435C34.4935 552.334 34.9105 552.184 35.3389 551.983V553.597C34.9606 553.784 34.5641 553.92 34.1494 554.007C33.7393 554.093 33.2402 554.137 32.6523 554.137C31.8867 554.137 31.2077 553.995 30.6152 553.713C30.0273 553.43 29.5648 553 29.2275 552.421C28.8949 551.842 28.7285 551.113 28.7285 550.233C28.7285 549.34 28.8789 548.597 29.1797 548.005C29.485 547.408 29.9089 546.961 30.4512 546.665C30.9935 546.364 31.6247 546.214 32.3447 546.214ZM32.3584 547.697C31.9528 547.697 31.6156 547.827 31.3467 548.087C31.0824 548.347 30.9297 548.755 30.8887 549.311H33.8145C33.8099 549.001 33.7529 548.725 33.6436 548.483C33.5387 548.242 33.3792 548.05 33.165 547.909C32.9554 547.768 32.6865 547.697 32.3584 547.697ZM42.7969 551.73C42.7969 552.25 42.6738 552.69 42.4277 553.05C42.1862 553.405 41.8239 553.676 41.3408 553.863C40.8577 554.046 40.2562 554.137 39.5361 554.137C39.0029 554.137 38.5449 554.103 38.1621 554.034C37.7839 553.966 37.401 553.852 37.0137 553.692V551.97C37.4284 552.157 37.8727 552.312 38.3467 552.435C38.8252 552.553 39.2445 552.612 39.6045 552.612C40.0101 552.612 40.2995 552.553 40.4727 552.435C40.6504 552.312 40.7393 552.152 40.7393 551.956C40.7393 551.828 40.7028 551.715 40.6299 551.614C40.5615 551.509 40.4111 551.393 40.1787 551.266C39.9463 551.133 39.5817 550.963 39.085 550.753C38.6064 550.552 38.2122 550.35 37.9023 550.145C37.597 549.939 37.3691 549.698 37.2188 549.42C37.0729 549.137 37 548.78 37 548.347C37 547.64 37.2734 547.109 37.8203 546.754C38.3717 546.394 39.1077 546.214 40.0283 546.214C40.5023 546.214 40.9535 546.262 41.3818 546.357C41.8148 546.453 42.2591 546.606 42.7148 546.815L42.0859 548.319C41.7077 548.155 41.3499 548.021 41.0127 547.916C40.68 547.811 40.3405 547.759 39.9941 547.759C39.6888 547.759 39.4587 547.8 39.3037 547.882C39.1488 547.964 39.0713 548.089 39.0713 548.258C39.0713 548.381 39.11 548.49 39.1875 548.586C39.2695 548.682 39.4245 548.789 39.6523 548.907C39.8848 549.021 40.2243 549.169 40.6709 549.352C41.1038 549.529 41.4798 549.716 41.7988 549.912C42.1178 550.104 42.3639 550.343 42.5371 550.63C42.7103 550.912 42.7969 551.279 42.7969 551.73ZM47.5273 554.137C46.7708 554.137 46.126 554 45.5928 553.727C45.0596 553.449 44.654 553.02 44.376 552.441C44.098 551.863 43.959 551.122 43.959 550.22C43.959 549.285 44.1162 548.524 44.4307 547.937C44.7497 547.344 45.1895 546.909 45.75 546.631C46.3151 546.353 46.9691 546.214 47.7119 546.214C48.2406 546.214 48.6963 546.266 49.0791 546.371C49.4665 546.471 49.8037 546.592 50.0908 546.733L49.4756 548.347C49.1475 548.215 48.8421 548.107 48.5596 548.025C48.277 547.939 47.9945 547.896 47.7119 547.896C47.3473 547.896 47.0443 547.982 46.8027 548.155C46.5612 548.324 46.3812 548.579 46.2627 548.921C46.1442 549.263 46.085 549.691 46.085 550.206C46.085 550.712 46.1488 551.131 46.2764 551.464C46.404 551.797 46.5885 552.045 46.8301 552.209C47.0716 552.368 47.3656 552.448 47.7119 552.448C48.1449 552.448 48.5299 552.391 48.8672 552.277C49.2044 552.159 49.5326 551.995 49.8516 551.785V553.569C49.5326 553.77 49.1976 553.913 48.8467 554C48.5003 554.091 48.0605 554.137 47.5273 554.137ZM55.8945 546.214C55.9993 546.214 56.1201 546.221 56.2568 546.234C56.3981 546.243 56.512 546.257 56.5986 546.275L56.4414 548.23C56.373 548.208 56.2751 548.192 56.1475 548.183C56.0244 548.169 55.9173 548.162 55.8262 548.162C55.5573 548.162 55.2952 548.196 55.04 548.265C54.7894 548.333 54.5638 548.445 54.3633 548.6C54.1628 548.75 54.0033 548.951 53.8848 549.201C53.7708 549.447 53.7139 549.75 53.7139 550.11V554H51.6289V546.357H53.208L53.5156 547.643H53.6182C53.7686 547.383 53.9554 547.146 54.1787 546.932C54.4066 546.713 54.6641 546.54 54.9512 546.412C55.2428 546.28 55.5573 546.214 55.8945 546.214ZM60.0713 546.357V554H57.9863V546.357H60.0713ZM59.0322 543.363C59.3421 543.363 59.6087 543.436 59.832 543.582C60.0553 543.723 60.167 543.99 60.167 544.382C60.167 544.769 60.0553 545.038 59.832 545.188C59.6087 545.334 59.3421 545.407 59.0322 545.407C58.7178 545.407 58.4489 545.334 58.2256 545.188C58.0068 545.038 57.8975 544.769 57.8975 544.382C57.8975 543.99 58.0068 543.723 58.2256 543.582C58.4489 543.436 58.7178 543.363 59.0322 543.363ZM66.5176 546.214C67.3789 546.214 68.0739 546.549 68.6025 547.219C69.1357 547.889 69.4023 548.871 69.4023 550.165C69.4023 551.031 69.277 551.76 69.0264 552.353C68.7757 552.94 68.4294 553.385 67.9873 553.686C67.5452 553.986 67.0371 554.137 66.4629 554.137C66.0938 554.137 65.777 554.091 65.5127 554C65.2484 553.904 65.0228 553.784 64.8359 553.638C64.6491 553.487 64.4873 553.328 64.3506 553.159H64.2412C64.2777 553.341 64.305 553.528 64.3232 553.72C64.3415 553.911 64.3506 554.098 64.3506 554.28V557.363H62.2656V546.357H63.9609L64.2549 547.349H64.3506C64.4873 547.144 64.6536 546.954 64.8496 546.781C65.0456 546.608 65.2803 546.471 65.5537 546.371C65.8317 546.266 66.153 546.214 66.5176 546.214ZM65.8477 547.882C65.4831 547.882 65.1937 547.957 64.9795 548.107C64.7653 548.258 64.6081 548.483 64.5078 548.784C64.4121 549.085 64.3597 549.465 64.3506 549.926V550.151C64.3506 550.644 64.3962 551.061 64.4873 551.402C64.583 551.744 64.7402 552.004 64.959 552.182C65.1823 552.359 65.4876 552.448 65.875 552.448C66.194 552.448 66.4561 552.359 66.6611 552.182C66.8662 552.004 67.0189 551.744 67.1191 551.402C67.224 551.056 67.2764 550.634 67.2764 550.138C67.2764 549.39 67.1602 548.827 66.9277 548.449C66.6953 548.071 66.3353 547.882 65.8477 547.882ZM74.3447 552.476C74.5726 552.476 74.7936 552.453 75.0078 552.407C75.2266 552.362 75.443 552.305 75.6572 552.236V553.788C75.4339 553.888 75.1559 553.97 74.8232 554.034C74.4951 554.103 74.1351 554.137 73.7432 554.137C73.2874 554.137 72.8773 554.064 72.5127 553.918C72.1527 553.768 71.8678 553.51 71.6582 553.146C71.4531 552.776 71.3506 552.264 71.3506 551.607V547.923H70.3525V547.041L71.501 546.344L72.1025 544.73H73.4355V546.357H75.5752V547.923H73.4355V551.607C73.4355 551.899 73.5176 552.118 73.6816 552.264C73.8503 552.405 74.0713 552.476 74.3447 552.476ZM79.2939 546.357V554H77.209V546.357H79.2939ZM78.2549 543.363C78.5648 543.363 78.8314 543.436 79.0547 543.582C79.278 543.723 79.3896 543.99 79.3896 544.382C79.3896 544.769 79.278 545.038 79.0547 545.188C78.8314 545.334 78.5648 545.407 78.2549 545.407C77.9404 545.407 77.6715 545.334 77.4482 545.188C77.2295 545.038 77.1201 544.769 77.1201 544.382C77.1201 543.99 77.2295 543.723 77.4482 543.582C77.6715 543.436 77.9404 543.363 78.2549 543.363ZM88.4336 550.165C88.4336 550.803 88.347 551.368 88.1738 551.86C88.0052 552.353 87.7568 552.77 87.4287 553.111C87.1051 553.449 86.7132 553.704 86.2529 553.877C85.7972 554.05 85.2822 554.137 84.708 554.137C84.1702 554.137 83.6758 554.05 83.2246 553.877C82.778 553.704 82.3883 553.449 82.0557 553.111C81.7275 552.77 81.4723 552.353 81.29 551.86C81.1123 551.368 81.0234 550.803 81.0234 550.165C81.0234 549.317 81.1738 548.6 81.4746 548.012C81.7754 547.424 82.2038 546.977 82.7598 546.672C83.3158 546.367 83.9788 546.214 84.749 546.214C85.4645 546.214 86.098 546.367 86.6494 546.672C87.2054 546.977 87.6406 547.424 87.9551 548.012C88.2741 548.6 88.4336 549.317 88.4336 550.165ZM83.1494 550.165C83.1494 550.666 83.2041 551.088 83.3135 551.43C83.4229 551.771 83.5938 552.029 83.8262 552.202C84.0586 552.375 84.3617 552.462 84.7354 552.462C85.1045 552.462 85.403 552.375 85.6309 552.202C85.8633 552.029 86.0319 551.771 86.1367 551.43C86.2461 551.088 86.3008 550.666 86.3008 550.165C86.3008 549.659 86.2461 549.24 86.1367 548.907C86.0319 548.57 85.8633 548.317 85.6309 548.148C85.3984 547.98 85.0954 547.896 84.7217 547.896C84.1702 547.896 83.7692 548.085 83.5186 548.463C83.2725 548.841 83.1494 549.409 83.1494 550.165ZM94.4971 546.214C95.3128 546.214 95.9691 546.437 96.4658 546.884C96.9626 547.326 97.2109 548.037 97.2109 549.017V554H95.126V549.536C95.126 548.989 95.0257 548.577 94.8252 548.299C94.6292 548.021 94.3193 547.882 93.8955 547.882C93.2575 547.882 92.8223 548.098 92.5898 548.531C92.3574 548.964 92.2412 549.589 92.2412 550.404V554H90.1562V546.357H91.749L92.0293 547.335H92.1455C92.3096 547.071 92.5124 546.856 92.7539 546.692C93 546.528 93.2712 546.408 93.5674 546.33C93.8682 546.253 94.1781 546.214 94.4971 546.214Z" fill="#2D353C"/>
<rect x="17.5" y="565.5" width="587" height="243" rx="4.5" stroke="#DCE1E5"/>
<mask id="path-20-inside-2_5_326" fill="white">
<path d="M0 828H623V900C623 904.418 619.418 908 615 908H8.00001C3.58173 908 0 904.418 0 900V828Z"/>
</mask>
<path d="M0 828H623V900C623 904.418 619.418 908 615 908H8.00001C3.58173 908 0 904.418 0 900V828Z" fill="white"/>
<path d="M0 827H623V829H0V827ZM623 908H0H623ZM0 908V828V908ZM623 828V908V828Z" fill="#DCE1E5" mask="url(#path-20-inside-2_5_326)"/>
<rect x="539" y="849" width="66" height="41" rx="5" fill="#348FE2"/>
<path d="M562.303 872.026C562.303 872.661 562.149 873.213 561.841 873.682C561.534 874.15 561.084 874.512 560.494 874.766C559.908 875.02 559.195 875.146 558.355 875.146C557.984 875.146 557.62 875.122 557.264 875.073C556.912 875.024 556.573 874.954 556.246 874.861C555.923 874.763 555.616 874.644 555.323 874.502V872.393C555.831 872.617 556.358 872.82 556.905 873C557.452 873.181 557.994 873.271 558.531 873.271C558.902 873.271 559.2 873.223 559.424 873.125C559.654 873.027 559.82 872.893 559.922 872.722C560.025 872.551 560.076 872.356 560.076 872.136C560.076 871.868 559.986 871.638 559.805 871.448C559.625 871.257 559.375 871.079 559.058 870.913C558.746 870.747 558.392 870.569 557.996 870.378C557.747 870.261 557.476 870.12 557.183 869.954C556.89 869.783 556.612 869.575 556.348 869.331C556.084 869.087 555.867 868.792 555.696 868.445C555.53 868.093 555.447 867.673 555.447 867.185C555.447 866.545 555.594 865.999 555.887 865.544C556.18 865.09 556.597 864.744 557.139 864.504C557.686 864.26 558.331 864.138 559.073 864.138C559.629 864.138 560.159 864.204 560.662 864.336C561.17 864.463 561.7 864.648 562.251 864.893L561.519 866.658C561.026 866.458 560.584 866.304 560.193 866.196C559.803 866.084 559.405 866.028 559 866.028C558.716 866.028 558.475 866.074 558.274 866.167C558.074 866.255 557.923 866.382 557.82 866.548C557.718 866.709 557.667 866.897 557.667 867.112C557.667 867.366 557.74 867.581 557.886 867.756C558.038 867.927 558.262 868.093 558.56 868.254C558.863 868.416 559.239 868.604 559.688 868.818C560.235 869.077 560.701 869.348 561.087 869.631C561.478 869.91 561.778 870.239 561.988 870.62C562.198 870.996 562.303 871.465 562.303 872.026ZM567.422 866.643C568.521 866.643 569.363 866.882 569.949 867.361C570.535 867.839 570.828 868.567 570.828 869.543V875H569.268L568.836 873.887H568.777C568.543 874.18 568.304 874.419 568.06 874.604C567.815 874.79 567.535 874.927 567.217 875.015C566.9 875.103 566.514 875.146 566.06 875.146C565.577 875.146 565.142 875.054 564.756 874.868C564.375 874.683 564.075 874.399 563.855 874.019C563.636 873.633 563.526 873.145 563.526 872.554C563.526 871.685 563.831 871.045 564.441 870.635C565.052 870.22 565.967 869.99 567.188 869.946L568.609 869.902V869.543C568.609 869.114 568.497 868.799 568.272 868.599C568.047 868.398 567.735 868.298 567.334 868.298C566.939 868.298 566.551 868.354 566.17 868.467C565.789 868.579 565.408 868.721 565.027 868.892L564.288 867.383C564.722 867.153 565.208 866.973 565.745 866.841C566.287 866.709 566.846 866.643 567.422 866.643ZM568.609 871.206L567.745 871.235C567.022 871.255 566.519 871.384 566.236 871.624C565.958 871.863 565.818 872.178 565.818 872.568C565.818 872.91 565.918 873.154 566.119 873.301C566.319 873.442 566.58 873.513 566.902 873.513C567.381 873.513 567.784 873.372 568.111 873.088C568.443 872.805 568.609 872.402 568.609 871.88V871.206ZM575.083 875L571.963 866.812H574.3L575.882 871.477C575.97 871.75 576.038 872.039 576.087 872.341C576.141 872.644 576.177 872.915 576.197 873.154H576.255C576.27 872.896 576.304 872.62 576.358 872.327C576.417 872.034 576.492 871.75 576.585 871.477L578.16 866.812H580.496L577.376 875H575.083ZM585.052 866.658C585.809 866.658 586.46 866.804 587.007 867.097C587.554 867.385 587.977 867.805 588.274 868.357C588.572 868.909 588.721 869.583 588.721 870.378V871.462H583.44C583.465 872.092 583.653 872.588 584.004 872.949C584.361 873.306 584.854 873.484 585.484 873.484C586.006 873.484 586.485 873.43 586.919 873.323C587.354 873.215 587.801 873.054 588.26 872.839V874.568C587.854 874.768 587.43 874.915 586.985 875.007C586.546 875.1 586.011 875.146 585.381 875.146C584.561 875.146 583.833 874.995 583.199 874.692C582.569 874.39 582.073 873.928 581.712 873.308C581.355 872.688 581.177 871.907 581.177 870.964C581.177 870.007 581.338 869.211 581.661 868.577C581.988 867.937 582.442 867.458 583.023 867.141C583.604 866.819 584.28 866.658 585.052 866.658ZM585.066 868.247C584.632 868.247 584.271 868.386 583.982 868.665C583.699 868.943 583.536 869.38 583.492 869.976H586.626C586.622 869.644 586.561 869.348 586.443 869.089C586.331 868.831 586.16 868.625 585.931 868.474C585.706 868.323 585.418 868.247 585.066 868.247Z" fill="white"/>
<rect x="449.5" y="849.5" width="78" height="40" rx="4.5" stroke="#DCE1E5"/>
<path d="M471.656 866.257C471.178 866.257 470.749 866.343 470.371 866.517C469.997 866.69 469.681 866.94 469.421 867.269C469.161 867.592 468.963 867.986 468.826 868.451C468.689 868.911 468.621 869.431 468.621 870.01C468.621 870.785 468.73 871.452 468.949 872.013C469.168 872.569 469.501 872.997 469.947 873.298C470.394 873.594 470.959 873.742 471.643 873.742C472.066 873.742 472.479 873.701 472.88 873.619C473.281 873.537 473.696 873.425 474.124 873.284V874.679C473.718 874.838 473.308 874.954 472.894 875.027C472.479 875.1 472 875.137 471.458 875.137C470.437 875.137 469.59 874.925 468.915 874.501C468.245 874.077 467.744 873.48 467.411 872.71C467.083 871.94 466.919 871.037 466.919 870.003C466.919 869.246 467.024 868.554 467.233 867.925C467.443 867.296 467.748 866.754 468.149 866.298C468.55 865.838 469.045 865.484 469.633 865.238C470.225 864.988 470.902 864.862 471.663 864.862C472.164 864.862 472.657 864.919 473.14 865.033C473.627 865.143 474.078 865.3 474.493 865.505L473.919 866.858C473.573 866.694 473.21 866.553 472.832 866.435C472.454 866.316 472.062 866.257 471.656 866.257ZM479.073 867.289C480.03 867.289 480.753 867.501 481.24 867.925C481.732 868.349 481.979 869.009 481.979 869.907V875H480.837L480.529 873.927H480.475C480.26 874.2 480.039 874.426 479.812 874.604C479.584 874.781 479.319 874.913 479.019 875C478.722 875.091 478.36 875.137 477.932 875.137C477.48 875.137 477.077 875.055 476.722 874.891C476.366 874.722 476.086 874.467 475.881 874.125C475.676 873.783 475.573 873.35 475.573 872.826C475.573 872.047 475.863 871.461 476.441 871.069C477.025 870.677 477.904 870.461 479.08 870.42L480.393 870.372V869.976C480.393 869.451 480.27 869.078 480.023 868.854C479.782 868.631 479.44 868.52 478.998 868.52C478.62 868.52 478.253 868.574 477.897 868.684C477.542 868.793 477.196 868.927 476.858 869.087L476.339 867.952C476.708 867.756 477.127 867.597 477.597 867.474C478.071 867.351 478.563 867.289 479.073 867.289ZM480.386 871.384L479.408 871.418C478.606 871.445 478.043 871.582 477.72 871.828C477.396 872.074 477.234 872.411 477.234 872.84C477.234 873.214 477.346 873.487 477.569 873.66C477.793 873.829 478.087 873.913 478.451 873.913C479.007 873.913 479.467 873.756 479.832 873.441C480.201 873.122 480.386 872.655 480.386 872.04V871.384ZM488.172 867.289C489.024 867.289 489.687 867.51 490.161 867.952C490.64 868.39 490.879 869.094 490.879 870.064V875H489.272V870.365C489.272 869.777 489.152 869.338 488.91 869.046C488.669 868.75 488.295 868.602 487.789 868.602C487.055 868.602 486.545 868.827 486.258 869.278C485.975 869.729 485.834 870.383 485.834 871.24V875H484.228V867.433H485.479L485.704 868.458H485.793C485.957 868.194 486.16 867.977 486.401 867.809C486.647 867.635 486.921 867.506 487.222 867.419C487.527 867.332 487.844 867.289 488.172 867.289ZM496.177 875.137C495.461 875.137 494.841 874.998 494.317 874.72C493.793 874.442 493.39 874.016 493.107 873.441C492.825 872.867 492.684 872.138 492.684 871.254C492.684 870.333 492.839 869.581 493.148 868.998C493.458 868.415 493.887 867.984 494.434 867.706C494.985 867.428 495.616 867.289 496.327 867.289C496.778 867.289 497.186 867.335 497.551 867.426C497.92 867.512 498.232 867.619 498.487 867.747L498.009 869.032C497.731 868.918 497.446 868.823 497.154 868.745C496.863 868.668 496.582 868.629 496.313 868.629C495.871 868.629 495.502 868.727 495.206 868.923C494.914 869.119 494.696 869.41 494.55 869.798C494.409 870.185 494.338 870.666 494.338 871.24C494.338 871.796 494.411 872.266 494.557 872.648C494.702 873.027 494.919 873.314 495.206 873.51C495.493 873.701 495.846 873.797 496.266 873.797C496.68 873.797 497.052 873.747 497.38 873.646C497.708 873.546 498.018 873.416 498.31 873.257V874.651C498.022 874.815 497.715 874.936 497.387 875.014C497.059 875.096 496.655 875.137 496.177 875.137ZM503.102 867.289C503.776 867.289 504.355 867.428 504.838 867.706C505.321 867.984 505.692 868.378 505.952 868.889C506.212 869.399 506.342 870.01 506.342 870.721V871.582H501.29C501.308 872.316 501.504 872.881 501.878 873.277C502.256 873.674 502.785 873.872 503.464 873.872C503.947 873.872 504.38 873.826 504.763 873.735C505.15 873.64 505.549 873.501 505.959 873.318V874.624C505.581 874.802 505.196 874.932 504.804 875.014C504.412 875.096 503.942 875.137 503.396 875.137C502.653 875.137 501.999 874.993 501.434 874.706C500.873 874.414 500.433 873.981 500.114 873.407C499.8 872.833 499.643 872.12 499.643 871.268C499.643 870.42 499.786 869.7 500.073 869.107C500.36 868.515 500.764 868.064 501.283 867.754C501.803 867.444 502.409 867.289 503.102 867.289ZM503.102 868.499C502.596 868.499 502.186 868.663 501.871 868.991C501.561 869.319 501.379 869.8 501.324 870.434H504.77C504.765 870.055 504.701 869.72 504.578 869.429C504.46 869.137 504.277 868.909 504.031 868.745C503.79 868.581 503.48 868.499 503.102 868.499ZM509.767 875H508.153V864.363H509.767V875Z" fill="black"/>
<path d="M602.503 40H599.392L596.403 35.1396L593.415 40H590.497L594.76 33.373L590.77 27.1504H593.775L596.544 31.7734L599.26 27.1504H602.195L598.161 33.5225L602.503 40Z" fill="#A9A9A9"/>
</g>
<defs>
<clipPath id="clip0_5_326">
<rect width="623" height="908" fill="white"/>
</clipPath>
</defs>
</svg>
